<svg xmlns="http://www.w3.org/2000/svg" viewBox="0 0 276.7 213.37"><defs><style>.cls-1{isolation:isolate;}.cls-2{mix-blend-mode:multiply;opacity:0.5;}.cls-3{fill:#fff;}.cls-4{fill:#fdfdfd;}.cls-5{fill:#fbfbfb;}.cls-6{fill:#f8f8f8;}.cls-7{fill:#f6f6f6;}.cls-8{fill:#f4f4f4;}.cls-9{fill:#f2f2f2;}.cls-10{fill:#f0eff0;}.cls-11{fill:#eeeded;}.cls-12{fill:#ebebeb;}.cls-13{fill:#e9e9e9;}.cls-14{fill:#e7e7e7;}.cls-15{fill:#e5e4e5;}.cls-16{fill:#e3e2e2;}.cls-17{fill:#e1e0e0;}.cls-18{fill:#dedede;}.cls-19{fill:#dcdcdc;}.cls-20{fill:#dad9d9;}.cls-21{fill:#d8d7d7;}.cls-22{fill:#d6d5d5;}.cls-23{fill:#d3d3d3;}.cls-24{fill:#d1d0d1;}.cls-25{fill:#cfcece;}.cls-26{fill:#cdcccc;}.cls-27{fill:#cbcaca;}.cls-28{fill:#c9c8c8;}.cls-29{fill:#c6c5c6;}.cls-30{fill:#c4c3c3;}.cls-31{fill:#c2c1c1;}.cls-32{fill:#c0bfbf;}.cls-33{fill:#bebcbd;}.cls-34{fill:#bbbabb;}.cls-35{fill:#b9b8b8;}.cls-36{fill:#b7b6b6;}.cls-37{fill:#b5b4b4;}.cls-38{fill:#b3b1b2;}.cls-39{fill:#b1afb0;}.cls-40{fill:#aeadad;}.cls-41{fill:#acabab;}.cls-42{fill:#aaa9a9;}.cls-43{fill:#a8a6a7;}.cls-44{fill:#a6a4a4;}.cls-45{fill:#a4a2a2;}.cls-46{fill:#a1a0a0;}.cls-47{fill:#9f9d9e;}.cls-48{fill:#9d9b9c;}.cls-49{fill:#9b9999;}.cls-50{fill:#999797;}.cls-51{fill:#969595;}.cls-52{fill:#949293;}.cls-53{fill:#929091;}.cls-54{fill:#908e8e;}.cls-55{fill:#8e8c8c;}.cls-56{fill:#8c898a;}.cls-57{fill:#898788;}.cls-58{fill:#878586;}.cls-59{fill:#858383;}.cls-60{fill:#838181;}.cls-61{fill:#817e7f;}.cls-62{fill:#7e7c7d;}.cls-63{fill:#7c7a7b;}.cls-64{fill:#7a7878;}.cls-65{fill:#787576;}.cls-66{fill:#767374;}.cls-67{fill:#747172;}.cls-68{fill:#716f6f;}.cls-69{fill:#6f6d6d;}.cls-70{fill:#6d6a6b;}.cls-71{fill:#6b6869;}.cls-72{fill:#696667;}.cls-73{fill:#676464;}.cls-74{fill:#646262;}.cls-75{fill:#625f60;}.cls-76{fill:#605d5e;}.cls-77{fill:#5e5b5c;}.cls-78{fill:#5c5959;}.cls-79{fill:#595657;}.cls-80{fill:#575455;}.cls-81{fill:#555253;}.cls-82{fill:#535051;}.cls-83{fill:#514e4e;}.cls-84{fill:#4f4b4c;}.cls-85{fill:#4c494a;}.cls-86{fill:#4a4748;}.cls-87{fill:#484546;}.cls-88{fill:#464243;}.cls-89{fill:#444041;}.cls-90{fill:#413e3f;}.cls-91{fill:#3f3c3d;}.cls-92{fill:#3d3a3a;}.cls-93{fill:#3b3738;}.cls-94{fill:#393536;}.cls-95{fill:#373334;}.cls-96{fill:#343132;}.cls-97{fill:#322f2f;}.cls-98{fill:#302c2d;}.cls-99{fill:#2e2a2b;}.cls-100{fill:#2c2829;}.cls-101{fill:#2a2627;}.cls-102{fill:#272324;}.cls-103{fill:#252122;}.cls-104{fill:#231f20;}.cls-105{fill:#a59a4a;}</style></defs><g class="cls-1"><g id="Layer_1" data-name="Layer 1"><g class="cls-2"><polygon class="cls-3" points="242.84 122.99 276.7 122.99 229.85 76.22 229.85 76.13 205.95 52.24 205.95 86.04 205.95 132.59 203.37 130.01 203.37 130.02 188.23 114.88 188.23 150.03 205.95 167.75 205.95 213.37 229.85 213.37 229.85 191.65 229.91 191.71 229.91 156.57 229.85 156.5 229.85 110 242.84 122.99"/><polygon class="cls-3" points="200.22 46.51 181.46 27.74 181.44 27.74 158.68 4.96 158.68 213.37 182.58 213.37 182.58 62.43 200.22 80.08 200.22 46.51"/><polygon class="cls-3" points="111.64 27.74 92.87 46.51 92.87 80.08 110.53 62.43 110.53 213.37 134.42 213.37 134.42 4.96 111.65 27.74 111.64 27.74"/><polygon class="cls-3" points="89.74 130.01 87.16 132.59 87.16 86.04 87.16 52.24 63.26 76.13 63.26 76.22 16.4 122.99 50.27 122.99 63.26 110 63.26 156.49 63.19 156.57 63.19 191.71 63.26 191.64 63.26 213.37 87.16 213.37 87.16 167.75 104.87 150.03 104.87 114.88 89.74 130.02 89.74 130.01"/><polygon class="cls-4" points="242.68 122.94 276.54 122.94 229.69 76.17 229.69 76.08 205.78 52.19 205.78 85.99 205.78 132.54 203.2 129.96 203.2 129.97 188.07 114.83 188.07 149.98 205.78 167.69 205.78 213.32 229.69 213.32 229.69 191.6 229.75 191.66 229.75 156.52 229.69 156.46 229.69 109.95 242.68 122.94"/><polygon class="cls-4" points="200.06 46.46 181.29 27.69 181.28 27.69 158.52 4.91 158.52 213.32 182.41 213.32 182.41 62.38 200.06 80.03 200.06 46.46"/><polygon class="cls-4" points="111.48 27.69 92.71 46.46 92.71 80.03 110.37 62.38 110.37 213.32 134.26 213.32 134.26 4.91 111.49 27.69 111.48 27.69"/><polygon class="cls-4" points="89.58 129.96 86.99 132.54 86.99 85.99 86.99 52.19 63.1 76.08 63.1 76.17 16.24 122.94 50.1 122.94 63.1 109.95 63.1 156.44 63.02 156.52 63.02 191.66 63.1 191.59 63.1 213.32 86.99 213.32 86.99 167.69 104.71 149.98 104.71 114.83 89.58 129.97 89.58 129.96"/><polygon class="cls-5" points="242.52 122.89 276.38 122.89 229.53 76.12 229.53 76.03 205.62 52.14 205.62 85.94 205.62 132.49 203.04 129.91 203.04 129.92 187.9 114.78 187.9 149.93 205.62 167.65 205.62 213.27 229.53 213.27 229.53 191.55 229.59 191.61 229.59 156.47 229.53 156.41 229.53 109.9 242.52 122.89"/><polygon class="cls-5" points="199.9 46.41 181.13 27.64 181.12 27.64 158.36 4.86 158.36 213.27 182.25 213.27 182.25 62.33 199.9 79.98 199.9 46.41"/><polygon class="cls-5" points="111.32 27.64 92.55 46.41 92.55 79.98 110.21 62.33 110.21 213.27 134.1 213.27 134.1 4.86 111.33 27.64 111.32 27.64"/><polygon class="cls-5" points="89.41 129.91 86.83 132.49 86.83 85.94 86.83 52.14 62.94 76.03 62.94 76.12 16.08 122.89 49.94 122.89 62.94 109.9 62.94 156.4 62.86 156.47 62.86 191.61 62.94 191.54 62.94 213.27 86.83 213.27 86.83 167.65 104.54 149.93 104.54 114.78 89.41 129.92 89.41 129.91"/><polygon class="cls-6" points="242.35 122.84 276.21 122.84 229.36 76.07 229.36 75.99 205.46 52.09 205.46 85.89 205.46 132.44 202.88 129.86 202.88 129.87 187.74 114.73 187.74 149.88 205.46 167.6 205.46 213.22 229.36 213.22 229.36 191.5 229.43 191.56 229.43 156.42 229.36 156.36 229.36 109.85 242.35 122.84"/><polygon class="cls-6" points="199.74 46.36 180.97 27.59 180.96 27.59 158.2 4.81 158.2 213.22 182.09 213.22 182.09 62.28 199.74 79.94 199.74 46.36"/><polygon class="cls-6" points="111.16 27.59 92.38 46.36 92.38 79.94 110.05 62.28 110.05 213.22 133.94 213.22 133.94 4.81 111.17 27.59 111.16 27.59"/><polygon class="cls-6" points="89.25 129.86 86.67 132.44 86.67 85.89 86.67 52.09 62.77 75.99 62.77 76.07 15.91 122.84 49.78 122.84 62.77 109.85 62.77 156.35 62.7 156.42 62.7 191.56 62.77 191.49 62.77 213.22 86.67 213.22 86.67 167.6 104.38 149.88 104.38 114.73 89.25 129.87 89.25 129.86"/><polygon class="cls-7" points="242.19 122.8 276.05 122.8 229.2 76.02 229.2 75.94 205.3 52.04 205.3 85.84 205.3 132.4 202.72 129.81 202.72 129.82 187.58 114.69 187.58 149.83 205.3 167.55 205.3 213.17 229.2 213.17 229.2 191.45 229.26 191.52 229.26 156.37 229.2 156.31 229.2 109.8 242.19 122.8"/><polygon class="cls-7" points="199.57 46.31 180.81 27.55 180.79 27.55 158.03 4.76 158.03 213.17 181.93 213.17 181.93 62.23 199.57 79.89 199.57 46.31"/><polygon class="cls-7" points="110.99 27.55 92.22 46.31 92.22 79.89 109.88 62.23 109.88 213.17 133.77 213.17 133.77 4.76 111 27.55 110.99 27.55"/><polygon class="cls-7" points="89.09 129.81 86.51 132.4 86.51 85.84 86.51 52.04 62.61 75.94 62.61 76.02 15.75 122.8 49.62 122.8 62.61 109.8 62.61 156.3 62.54 156.37 62.54 191.52 62.61 191.44 62.61 213.17 86.51 213.17 86.51 167.55 104.22 149.83 104.22 114.69 89.09 129.82 89.09 129.81"/><polygon class="cls-8" points="242.03 122.75 275.89 122.75 229.04 75.97 229.04 75.89 205.13 51.99 205.13 85.79 205.13 132.35 202.55 129.76 202.55 129.77 187.42 114.64 187.42 149.78 205.13 167.5 205.13 213.12 229.04 213.12 229.04 191.4 229.1 191.47 229.1 156.32 229.04 156.26 229.04 109.75 242.03 122.75"/><polygon class="cls-8" points="199.41 46.27 180.65 27.5 180.63 27.5 157.87 4.71 157.87 213.12 181.76 213.12 181.76 62.18 199.41 79.84 199.41 46.27"/><polygon class="cls-8" points="110.83 27.5 92.06 46.27 92.06 79.84 109.72 62.18 109.72 213.12 133.61 213.12 133.61 4.71 110.84 27.5 110.83 27.5"/><polygon class="cls-8" points="88.93 129.76 86.34 132.35 86.34 85.79 86.34 51.99 62.45 75.89 62.45 75.97 15.59 122.75 49.45 122.75 62.45 109.75 62.45 156.25 62.37 156.32 62.37 191.47 62.45 191.39 62.45 213.12 86.34 213.12 86.34 167.5 104.06 149.78 104.06 114.64 88.93 129.77 88.93 129.76"/><polygon class="cls-9" points="241.87 122.7 275.73 122.7 228.88 75.92 228.88 75.84 204.97 51.94 204.97 85.74 204.97 132.3 202.39 129.71 202.39 129.72 187.25 114.59 187.25 149.73 204.97 167.45 204.97 213.07 228.88 213.07 228.88 191.35 228.94 191.42 228.94 156.27 228.88 156.21 228.88 109.7 241.87 122.7"/><polygon class="cls-9" points="199.25 46.22 180.48 27.45 180.47 27.45 157.71 4.67 157.71 213.07 181.6 213.07 181.6 62.13 199.25 79.79 199.25 46.22"/><polygon class="cls-9" points="110.67 27.45 91.89 46.22 91.89 79.79 109.56 62.13 109.56 213.07 133.45 213.07 133.45 4.67 110.68 27.45 110.67 27.45"/><polygon class="cls-9" points="88.77 129.71 86.18 132.3 86.18 85.74 86.18 51.94 62.29 75.84 62.29 75.92 15.43 122.7 49.29 122.7 62.29 109.7 62.29 156.2 62.21 156.27 62.21 191.42 62.29 191.34 62.29 213.07 86.18 213.07 86.18 167.45 103.89 149.73 103.89 114.59 88.77 129.72 88.77 129.71"/><polygon class="cls-10" points="241.71 122.65 275.56 122.65 228.71 75.87 228.71 75.79 204.81 51.89 204.81 85.69 204.81 132.25 202.23 129.66 202.23 129.68 187.09 114.54 187.09 149.68 204.81 167.4 204.81 213.03 228.71 213.03 228.71 191.3 228.78 191.37 228.78 156.22 228.71 156.16 228.71 109.65 241.71 122.65"/><polygon class="cls-10" points="199.09 46.17 180.32 27.4 180.31 27.4 157.55 4.62 157.55 213.03 181.44 213.03 181.44 62.09 199.09 79.74 199.09 46.17"/><polygon class="cls-10" points="110.51 27.4 91.73 46.17 91.73 79.74 109.4 62.09 109.4 213.03 133.29 213.03 133.29 4.62 110.52 27.4 110.51 27.4"/><polygon class="cls-10" points="88.6 129.66 86.02 132.25 86.02 85.69 86.02 51.89 62.12 75.79 62.12 75.87 15.27 122.65 49.13 122.65 62.12 109.65 62.12 156.15 62.05 156.22 62.05 191.37 62.12 191.29 62.12 213.03 86.02 213.03 86.02 167.4 103.73 149.68 103.73 114.54 88.6 129.68 88.6 129.66"/><polygon class="cls-11" points="241.54 122.6 275.4 122.6 228.55 75.82 228.55 75.74 204.65 51.84 204.65 85.64 204.65 132.2 202.07 129.62 202.07 129.63 186.93 114.49 186.93 149.63 204.65 167.35 204.65 212.98 228.55 212.98 228.55 191.25 228.62 191.32 228.62 156.18 228.55 156.11 228.55 109.6 241.54 122.6"/><polygon class="cls-11" points="198.92 46.12 180.16 27.35 180.14 27.35 157.38 4.57 157.38 212.98 181.28 212.98 181.28 62.04 198.92 79.69 198.92 46.12"/><polygon class="cls-11" points="110.34 27.35 91.57 46.12 91.57 79.69 109.23 62.04 109.23 212.98 133.12 212.98 133.12 4.57 110.35 27.35 110.34 27.35"/><polygon class="cls-11" points="88.44 129.62 85.86 132.2 85.86 85.64 85.86 51.84 61.96 75.74 61.96 75.82 15.1 122.6 48.97 122.6 61.96 109.6 61.96 156.1 61.89 156.18 61.89 191.32 61.96 191.24 61.96 212.98 85.86 212.98 85.86 167.35 103.57 149.63 103.57 114.49 88.44 129.63 88.44 129.62"/><polygon class="cls-12" points="241.38 122.55 275.24 122.55 228.39 75.77 228.39 75.69 204.49 51.79 204.49 85.6 204.49 132.15 201.9 129.57 201.9 129.58 186.77 114.44 186.77 149.58 204.49 167.3 204.49 212.93 228.39 212.93 228.39 191.21 228.45 191.27 228.45 156.13 228.39 156.06 228.39 109.56 241.38 122.55"/><polygon class="cls-12" points="198.76 46.07 180 27.3 179.98 27.3 157.22 4.52 157.22 212.93 181.12 212.93 181.12 61.99 198.76 79.64 198.76 46.07"/><polygon class="cls-12" points="110.18 27.3 91.41 46.07 91.41 79.64 109.07 61.99 109.07 212.93 132.96 212.93 132.96 4.52 110.19 27.3 110.18 27.3"/><polygon class="cls-12" points="88.28 129.57 85.69 132.15 85.69 85.6 85.69 51.79 61.8 75.69 61.8 75.77 14.94 122.55 48.8 122.55 61.8 109.56 61.8 156.05 61.72 156.13 61.72 191.27 61.8 191.19 61.8 212.93 85.69 212.93 85.69 167.3 103.41 149.58 103.41 114.44 88.28 129.58 88.28 129.57"/><polygon class="cls-13" points="241.22 122.5 275.08 122.5 228.23 75.72 228.23 75.64 204.32 51.74 204.32 85.55 204.32 132.1 201.74 129.52 201.74 129.53 186.6 114.39 186.6 149.53 204.32 167.25 204.32 212.88 228.23 212.88 228.23 191.16 228.29 191.22 228.29 156.08 228.23 156.01 228.23 109.51 241.22 122.5"/><polygon class="cls-13" points="198.6 46.02 179.83 27.25 179.82 27.25 157.06 4.47 157.06 212.88 180.95 212.88 180.95 61.94 198.6 79.59 198.6 46.02"/><polygon class="cls-13" points="110.02 27.25 91.25 46.02 91.25 79.59 108.91 61.94 108.91 212.88 132.8 212.88 132.8 4.47 110.03 27.25 110.02 27.25"/><polygon class="cls-13" points="88.11 129.52 85.53 132.1 85.53 85.55 85.53 51.74 61.64 75.64 61.64 75.72 14.78 122.5 48.64 122.5 61.64 109.51 61.64 156 61.56 156.08 61.56 191.22 61.64 191.15 61.64 212.88 85.53 212.88 85.53 167.25 103.25 149.53 103.25 114.39 88.11 129.53 88.11 129.52"/><polygon class="cls-14" points="241.06 122.45 274.92 122.45 228.06 75.68 228.06 75.59 204.16 51.7 204.16 85.5 204.16 132.05 201.58 129.47 201.58 129.48 186.44 114.34 186.44 149.49 204.16 167.21 204.16 212.83 228.06 212.83 228.06 191.11 228.13 191.17 228.13 156.03 228.06 155.97 228.06 109.46 241.06 122.45"/><polygon class="cls-14" points="198.44 45.97 179.67 27.2 179.66 27.2 156.9 4.42 156.9 212.83 180.79 212.83 180.79 61.89 198.44 79.54 198.44 45.97"/><polygon class="cls-14" points="109.86 27.2 91.08 45.97 91.08 79.54 108.75 61.89 108.75 212.83 132.64 212.83 132.64 4.42 109.87 27.2 109.86 27.2"/><polygon class="cls-14" points="87.95 129.47 85.37 132.05 85.37 85.5 85.37 51.7 61.48 75.59 61.48 75.68 14.62 122.45 48.48 122.45 61.48 109.46 61.48 155.95 61.4 156.03 61.4 191.17 61.48 191.1 61.48 212.83 85.37 212.83 85.37 167.21 103.08 149.49 103.08 114.34 87.95 129.48 87.95 129.47"/><polygon class="cls-15" points="240.89 122.4 274.75 122.4 227.9 75.63 227.9 75.54 204 51.65 204 85.45 204 132 201.42 129.42 201.42 129.43 186.28 114.29 186.28 149.44 204 167.16 204 212.78 227.9 212.78 227.9 191.06 227.97 191.12 227.97 155.98 227.9 155.91 227.9 109.41 240.89 122.4"/><polygon class="cls-15" points="198.27 45.92 179.51 27.15 179.49 27.15 156.74 4.37 156.74 212.78 180.63 212.78 180.63 61.84 198.27 79.49 198.27 45.92"/><polygon class="cls-15" points="109.69 27.15 90.92 45.92 90.92 79.49 108.58 61.84 108.58 212.78 132.47 212.78 132.47 4.37 109.7 27.15 109.69 27.15"/><polygon class="cls-15" points="87.79 129.42 85.21 132 85.21 85.45 85.21 51.65 61.31 75.54 61.31 75.63 14.45 122.4 48.32 122.4 61.31 109.41 61.31 155.9 61.24 155.98 61.24 191.12 61.31 191.05 61.31 212.78 85.21 212.78 85.21 167.16 102.92 149.44 102.92 114.29 87.79 129.43 87.79 129.42"/><polygon class="cls-16" points="240.73 122.35 274.59 122.35 227.74 75.58 227.74 75.5 203.84 51.6 203.84 85.4 203.84 131.95 201.25 129.37 201.25 129.38 186.12 114.24 186.12 149.39 203.84 167.11 203.84 212.73 227.74 212.73 227.74 191.01 227.8 191.07 227.8 155.93 227.74 155.87 227.74 109.36 240.73 122.35"/><polygon class="cls-16" points="198.11 45.87 179.35 27.1 179.33 27.1 156.57 4.32 156.57 212.73 180.47 212.73 180.47 61.79 198.11 79.44 198.11 45.87"/><polygon class="cls-16" points="109.53 27.1 90.76 45.87 90.76 79.44 108.42 61.79 108.42 212.73 132.31 212.73 132.31 4.32 109.54 27.1 109.53 27.1"/><polygon class="cls-16" points="87.63 129.37 85.05 131.95 85.05 85.4 85.05 51.6 61.15 75.5 61.15 75.58 14.29 122.35 48.15 122.35 61.15 109.36 61.15 155.85 61.08 155.93 61.08 191.07 61.15 191 61.15 212.73 85.05 212.73 85.05 167.11 102.76 149.39 102.76 114.24 87.63 129.38 87.63 129.37"/><polygon class="cls-17" points="240.57 122.31 274.43 122.31 227.58 75.53 227.58 75.45 203.67 51.55 203.67 85.35 203.67 131.9 201.09 129.32 201.09 129.33 185.96 114.19 185.96 149.34 203.67 167.06 203.67 212.68 227.58 212.68 227.58 190.96 227.64 191.02 227.64 155.88 227.58 155.82 227.58 109.31 240.57 122.31"/><polygon class="cls-17" points="197.95 45.82 179.18 27.05 179.17 27.05 156.41 4.27 156.41 212.68 180.3 212.68 180.3 61.74 197.95 79.39 197.95 45.82"/><polygon class="cls-17" points="109.37 27.05 90.6 45.82 90.6 79.39 108.26 61.74 108.26 212.68 132.15 212.68 132.15 4.27 109.38 27.05 109.37 27.05"/><polygon class="cls-17" points="87.47 129.32 84.88 131.9 84.88 85.35 84.88 51.55 60.99 75.45 60.99 75.53 14.13 122.31 47.99 122.31 60.99 109.31 60.99 155.81 60.91 155.88 60.91 191.02 60.99 190.95 60.99 212.68 84.88 212.68 84.88 167.06 102.59 149.34 102.59 114.19 87.47 129.33 87.47 129.32"/><polygon class="cls-18" points="240.41 122.26 274.27 122.26 227.41 75.48 227.41 75.4 203.51 51.5 203.51 85.3 203.51 131.85 200.93 129.27 200.93 129.28 185.79 114.14 185.79 149.29 203.51 167.01 203.51 212.63 227.41 212.63 227.41 190.91 227.48 190.97 227.48 155.83 227.41 155.77 227.41 109.26 240.41 122.26"/><polygon class="cls-18" points="197.79 45.77 179.02 27 179.01 27 156.25 4.22 156.25 212.63 180.14 212.63 180.14 61.69 197.79 79.35 197.79 45.77"/><polygon class="cls-18" points="109.21 27 90.43 45.77 90.43 79.35 108.1 61.69 108.1 212.63 131.99 212.63 131.99 4.22 109.22 27 109.21 27"/><polygon class="cls-18" points="87.3 129.27 84.72 131.85 84.72 85.3 84.72 51.5 60.83 75.4 60.83 75.48 13.97 122.26 47.83 122.26 60.83 109.26 60.83 155.76 60.75 155.83 60.75 190.97 60.83 190.9 60.83 212.63 84.72 212.63 84.72 167.01 102.43 149.29 102.43 114.14 87.3 129.28 87.3 129.27"/><polygon class="cls-19" points="240.24 122.21 274.1 122.21 227.25 75.43 227.25 75.35 203.35 51.45 203.35 85.25 203.35 131.81 200.77 129.22 200.77 129.23 185.63 114.1 185.63 149.24 203.35 166.96 203.35 212.58 227.25 212.58 227.25 190.86 227.32 190.93 227.32 155.78 227.25 155.72 227.25 109.21 240.24 122.21"/><polygon class="cls-19" points="197.62 45.73 178.86 26.95 178.84 26.95 156.09 4.17 156.09 212.58 179.98 212.58 179.98 61.64 197.62 79.3 197.62 45.73"/><polygon class="cls-19" points="109.05 26.95 90.27 45.73 90.27 79.3 107.94 61.64 107.94 212.58 131.82 212.58 131.82 4.17 109.06 26.95 109.05 26.95"/><polygon class="cls-19" points="87.14 129.22 84.56 131.81 84.56 85.25 84.56 51.45 60.66 75.35 60.66 75.43 13.8 122.21 47.67 122.21 60.66 109.21 60.66 155.71 60.59 155.78 60.59 190.93 60.66 190.85 60.66 212.58 84.56 212.58 84.56 166.96 102.27 149.24 102.27 114.1 87.14 129.23 87.14 129.22"/><polygon class="cls-20" points="240.08 122.16 273.94 122.16 227.09 75.38 227.09 75.3 203.19 51.4 203.19 85.2 203.19 131.76 200.6 129.17 200.6 129.18 185.47 114.05 185.47 149.19 203.19 166.91 203.19 212.53 227.09 212.53 227.09 190.81 227.15 190.88 227.15 155.73 227.09 155.67 227.09 109.16 240.08 122.16"/><polygon class="cls-20" points="197.46 45.68 178.7 26.91 178.68 26.91 155.92 4.13 155.92 212.53 179.82 212.53 179.82 61.59 197.46 79.25 197.46 45.68"/><polygon class="cls-20" points="108.88 26.91 90.11 45.68 90.11 79.25 107.77 61.59 107.77 212.53 131.66 212.53 131.66 4.13 108.89 26.91 108.88 26.91"/><polygon class="cls-20" points="86.98 129.17 84.39 131.76 84.39 85.2 84.39 51.4 60.5 75.3 60.5 75.38 13.64 122.16 47.5 122.16 60.5 109.16 60.5 155.66 60.42 155.73 60.42 190.88 60.5 190.8 60.5 212.53 84.39 212.53 84.39 166.91 102.11 149.19 102.11 114.05 86.98 129.18 86.98 129.17"/><polygon class="cls-21" points="239.92 122.11 273.78 122.11 226.93 75.33 226.93 75.25 203.03 51.35 203.03 85.15 203.03 131.71 200.44 129.12 200.44 129.13 185.31 114 185.31 149.14 203.03 166.86 203.03 212.48 226.93 212.48 226.93 190.76 226.99 190.83 226.99 155.68 226.93 155.62 226.93 109.11 239.92 122.11"/><polygon class="cls-21" points="197.3 45.63 178.53 26.86 178.52 26.86 155.76 4.08 155.76 212.48 179.65 212.48 179.65 61.55 197.3 79.2 197.3 45.63"/><polygon class="cls-21" points="108.72 26.86 89.95 45.63 89.95 79.2 107.61 61.55 107.61 212.48 131.5 212.48 131.5 4.08 108.73 26.86 108.72 26.86"/><polygon class="cls-21" points="86.82 129.12 84.23 131.71 84.23 85.15 84.23 51.35 60.34 75.25 60.34 75.33 13.48 122.11 47.34 122.11 60.34 109.11 60.34 155.61 60.26 155.68 60.26 190.83 60.34 190.75 60.34 212.48 84.23 212.48 84.23 166.86 101.94 149.14 101.94 114 86.82 129.13 86.82 129.12"/><polygon class="cls-22" points="239.76 122.06 273.62 122.06 226.76 75.28 226.76 75.2 202.86 51.3 202.86 85.1 202.86 131.66 200.28 129.07 200.28 129.09 185.14 113.95 185.14 149.09 202.86 166.81 202.86 212.44 226.76 212.44 226.76 190.71 226.83 190.78 226.83 155.63 226.76 155.57 226.76 109.06 239.76 122.06"/><polygon class="cls-22" points="197.14 45.58 178.37 26.81 178.36 26.81 155.6 4.03 155.6 212.44 179.49 212.44 179.49 61.5 197.14 79.15 197.14 45.58"/><polygon class="cls-22" points="108.56 26.81 89.78 45.58 89.78 79.15 107.45 61.5 107.45 212.44 131.34 212.44 131.34 4.03 108.57 26.81 108.56 26.81"/><polygon class="cls-22" points="86.65 129.07 84.07 131.66 84.07 85.1 84.07 51.3 60.17 75.2 60.17 75.28 13.32 122.06 47.18 122.06 60.17 109.06 60.17 155.56 60.1 155.63 60.1 190.78 60.17 190.7 60.17 212.44 84.07 212.44 84.07 166.81 101.78 149.09 101.78 113.95 86.65 129.09 86.65 129.07"/><polygon class="cls-23" points="239.59 122.01 273.45 122.01 226.6 75.23 226.6 75.15 202.7 51.25 202.7 85.06 202.7 131.61 200.12 129.03 200.12 129.04 184.98 113.9 184.98 149.04 202.7 166.76 202.7 212.39 226.6 212.39 226.6 190.66 226.67 190.73 226.67 155.59 226.6 155.52 226.6 109.02 239.59 122.01"/><polygon class="cls-23" points="196.97 45.53 178.21 26.76 178.19 26.76 155.44 3.98 155.44 212.39 179.33 212.39 179.33 61.45 196.97 79.1 196.97 45.53"/><polygon class="cls-23" points="108.39 26.76 89.62 45.53 89.62 79.1 107.29 61.45 107.29 212.39 131.18 212.39 131.18 3.98 108.41 26.76 108.39 26.76"/><polygon class="cls-23" points="86.49 129.03 83.91 131.61 83.91 85.06 83.91 51.25 60.01 75.15 60.01 75.23 13.15 122.01 47.02 122.01 60.01 109.02 60.01 155.51 59.94 155.59 59.94 190.73 60.01 190.65 60.01 212.39 83.91 212.39 83.91 166.76 101.62 149.04 101.62 113.9 86.49 129.04 86.49 129.03"/><polygon class="cls-24" points="239.43 121.96 273.29 121.96 226.44 75.19 226.44 75.1 202.54 51.2 202.54 85.01 202.54 131.56 199.96 128.98 199.96 128.99 184.82 113.85 184.82 148.99 202.54 166.71 202.54 212.34 226.44 212.34 226.44 190.62 226.5 190.68 226.5 155.54 226.44 155.47 226.44 108.97 239.43 121.96"/><polygon class="cls-24" points="196.81 45.48 178.05 26.71 178.03 26.71 155.27 3.93 155.27 212.34 179.17 212.34 179.17 61.4 196.81 79.05 196.81 45.48"/><polygon class="cls-24" points="108.23 26.71 89.46 45.48 89.46 79.05 107.12 61.4 107.12 212.34 131.01 212.34 131.01 3.93 108.24 26.71 108.23 26.71"/><polygon class="cls-24" points="86.33 128.98 83.75 131.56 83.75 85.01 83.75 51.2 59.85 75.1 59.85 75.19 12.99 121.96 46.85 121.96 59.85 108.97 59.85 155.46 59.77 155.54 59.77 190.68 59.85 190.6 59.85 212.34 83.75 212.34 83.75 166.71 101.46 148.99 101.46 113.85 86.33 128.99 86.33 128.98"/><polygon class="cls-25" points="239.27 121.91 273.13 121.91 226.28 75.14 226.28 75.05 202.37 51.16 202.37 84.96 202.37 131.51 199.79 128.93 199.79 128.94 184.66 113.8 184.66 148.94 202.37 166.66 202.37 212.29 226.28 212.29 226.28 190.57 226.34 190.63 226.34 155.49 226.28 155.42 226.28 108.92 239.27 121.91"/><polygon class="cls-25" points="196.65 45.43 177.88 26.66 177.87 26.66 155.11 3.88 155.11 212.29 179 212.29 179 61.35 196.65 79 196.65 45.43"/><polygon class="cls-25" points="108.07 26.66 89.3 45.43 89.3 79 106.96 61.35 106.96 212.29 130.85 212.29 130.85 3.88 108.08 26.66 108.07 26.66"/><polygon class="cls-25" points="86.17 128.93 83.58 131.51 83.58 84.96 83.58 51.16 59.69 75.05 59.69 75.14 12.83 121.91 46.69 121.91 59.69 108.92 59.69 155.41 59.61 155.49 59.61 190.63 59.69 190.56 59.69 212.29 83.58 212.29 83.58 166.66 101.3 148.94 101.3 113.8 86.17 128.94 86.17 128.93"/><polygon class="cls-26" points="239.11 121.86 272.97 121.86 226.12 75.09 226.12 75 202.21 51.11 202.21 84.91 202.21 131.46 199.63 128.88 199.63 128.89 184.49 113.75 184.49 148.9 202.21 166.62 202.21 212.24 226.12 212.24 226.12 190.52 226.18 190.58 226.18 155.44 226.12 155.38 226.12 108.87 239.11 121.86"/><polygon class="cls-26" points="196.49 45.38 177.72 26.61 177.71 26.61 154.95 3.83 154.95 212.24 178.84 212.24 178.84 61.3 196.49 78.95 196.49 45.38"/><polygon class="cls-26" points="107.91 26.61 89.14 45.38 89.14 78.95 106.8 61.3 106.8 212.24 130.69 212.24 130.69 3.83 107.92 26.61 107.91 26.61"/><polygon class="cls-26" points="86 128.88 83.42 131.46 83.42 84.91 83.42 51.11 59.53 75 59.53 75.09 12.67 121.86 46.53 121.86 59.53 108.87 59.53 155.36 59.45 155.44 59.45 190.58 59.53 190.51 59.53 212.24 83.42 212.24 83.42 166.62 101.13 148.9 101.13 113.75 86 128.89 86 128.88"/><polygon class="cls-27" points="238.94 121.81 272.8 121.81 225.95 75.04 225.95 74.95 202.05 51.06 202.05 84.86 202.05 131.41 199.47 128.83 199.47 128.84 184.33 113.7 184.33 148.85 202.05 166.57 202.05 212.19 225.95 212.19 225.95 190.47 226.02 190.53 226.02 155.39 225.95 155.33 225.95 108.82 238.94 121.81"/><polygon class="cls-27" points="196.33 45.33 177.56 26.56 177.54 26.56 154.79 3.78 154.79 212.19 178.68 212.19 178.68 61.25 196.33 78.9 196.33 45.33"/><polygon class="cls-27" points="107.75 26.56 88.97 45.33 88.97 78.9 106.64 61.25 106.64 212.19 130.53 212.19 130.53 3.78 107.75 26.56 107.75 26.56"/><polygon class="cls-27" points="85.84 128.83 83.26 131.41 83.26 84.86 83.26 51.06 59.36 74.95 59.36 75.04 12.51 121.81 46.37 121.81 59.36 108.82 59.36 155.31 59.29 155.39 59.29 190.53 59.36 190.46 59.36 212.19 83.26 212.19 83.26 166.57 100.97 148.85 100.97 113.7 85.84 128.84 85.84 128.83"/><polygon class="cls-28" points="238.78 121.77 272.64 121.77 225.79 74.99 225.79 74.91 201.89 51.01 201.89 84.81 201.89 131.36 199.31 128.78 199.31 128.79 184.17 113.65 184.17 148.8 201.89 166.52 201.89 212.14 225.79 212.14 225.79 190.42 225.85 190.48 225.85 155.34 225.79 155.28 225.79 108.77 238.78 121.77"/><polygon class="cls-28" points="196.16 45.28 177.4 26.51 177.38 26.51 154.62 3.73 154.62 212.14 178.52 212.14 178.52 61.2 196.16 78.86 196.16 45.28"/><polygon class="cls-28" points="107.58 26.51 88.81 45.28 88.81 78.86 106.47 61.2 106.47 212.14 130.36 212.14 130.36 3.73 107.59 26.51 107.58 26.51"/><polygon class="cls-28" points="85.68 128.78 83.1 131.36 83.1 84.81 83.1 51.01 59.2 74.91 59.2 74.99 12.34 121.77 46.2 121.77 59.2 108.77 59.2 155.26 59.13 155.34 59.13 190.48 59.2 190.41 59.2 212.14 83.1 212.14 83.1 166.52 100.81 148.8 100.81 113.65 85.68 128.79 85.68 128.78"/><polygon class="cls-29" points="238.62 121.72 272.48 121.72 225.63 74.94 225.63 74.86 201.72 50.96 201.72 84.76 201.72 131.31 199.14 128.73 199.14 128.74 184.01 113.6 184.01 148.75 201.72 166.47 201.72 212.09 225.63 212.09 225.63 190.37 225.69 190.43 225.69 155.29 225.63 155.23 225.63 108.72 238.62 121.72"/><polygon class="cls-29" points="196 45.23 177.24 26.46 177.22 26.46 154.46 3.68 154.46 212.09 178.35 212.09 178.35 61.15 196 78.81 196 45.23"/><polygon class="cls-29" points="107.42 26.46 88.65 45.23 88.65 78.81 106.31 61.15 106.31 212.09 130.2 212.09 130.2 3.68 107.43 26.46 107.42 26.46"/><polygon class="cls-29" points="85.52 128.73 82.93 131.31 82.93 84.76 82.93 50.96 59.04 74.86 59.04 74.94 12.18 121.72 46.04 121.72 59.04 108.72 59.04 155.22 58.96 155.29 58.96 190.43 59.04 190.36 59.04 212.09 82.93 212.09 82.93 166.47 100.65 148.75 100.65 113.6 85.52 128.74 85.52 128.73"/><polygon class="cls-30" points="238.46 121.67 272.32 121.67 225.47 74.89 225.47 74.81 201.56 50.91 201.56 84.71 201.56 131.27 198.98 128.68 198.98 128.69 183.84 113.56 183.84 148.7 201.56 166.42 201.56 212.04 225.47 212.04 225.47 190.32 225.53 190.39 225.53 155.24 225.47 155.18 225.47 108.67 238.46 121.67"/><polygon class="cls-30" points="195.84 45.18 177.07 26.41 177.06 26.41 154.3 3.63 154.3 212.04 178.19 212.04 178.19 61.1 195.84 78.76 195.84 45.18"/><polygon class="cls-30" points="107.26 26.41 88.48 45.18 88.48 78.76 106.15 61.1 106.15 212.04 130.04 212.04 130.04 3.63 107.27 26.41 107.26 26.41"/><polygon class="cls-30" points="85.35 128.68 82.77 131.26 82.77 84.71 82.77 50.91 58.88 74.81 58.88 74.89 12.02 121.67 45.88 121.67 58.88 108.67 58.88 155.17 58.8 155.24 58.8 190.39 58.88 190.31 58.88 212.04 82.77 212.04 82.77 166.42 100.48 148.7 100.48 113.56 85.35 128.69 85.35 128.68"/><polygon class="cls-31" points="238.29 121.62 272.15 121.62 225.3 74.84 225.3 74.76 201.4 50.86 201.4 84.66 201.4 131.22 198.82 128.63 198.82 128.64 183.68 113.51 183.68 148.65 201.4 166.37 201.4 211.99 225.3 211.99 225.3 190.27 225.37 190.34 225.37 155.19 225.3 155.13 225.3 108.62 238.29 121.62"/><polygon class="cls-31" points="195.68 45.13 176.91 26.37 176.9 26.37 154.14 3.59 154.14 211.99 178.03 211.99 178.03 61.05 195.68 78.71 195.68 45.13"/><polygon class="cls-31" points="107.1 26.37 88.32 45.13 88.32 78.71 105.99 61.05 105.99 211.99 129.88 211.99 129.88 3.59 107.11 26.37 107.1 26.37"/><polygon class="cls-31" points="85.19 128.63 82.61 131.22 82.61 84.66 82.61 50.86 58.71 74.76 58.71 74.84 11.86 121.62 45.72 121.62 58.71 108.62 58.71 155.12 58.64 155.19 58.64 190.34 58.71 190.26 58.71 211.99 82.61 211.99 82.61 166.37 100.32 148.65 100.32 113.51 85.19 128.64 85.19 128.63"/><polygon class="cls-32" points="238.13 121.57 271.99 121.57 225.14 74.79 225.14 74.71 201.24 50.81 201.24 84.61 201.24 131.17 198.66 128.58 198.66 128.59 183.52 113.46 183.52 148.6 201.24 166.32 201.24 211.94 225.14 211.94 225.14 190.22 225.21 190.29 225.21 155.15 225.14 155.08 225.14 108.57 238.13 121.57"/><polygon class="cls-32" points="195.51 45.09 176.75 26.32 176.73 26.32 153.97 3.54 153.97 211.94 177.87 211.94 177.87 61 195.51 78.66 195.51 45.09"/><polygon class="cls-32" points="106.93 26.32 88.16 45.09 88.16 78.66 105.83 61 105.83 211.94 129.71 211.94 129.71 3.54 106.94 26.32 106.93 26.32"/><polygon class="cls-32" points="85.03 128.58 82.45 131.17 82.45 84.61 82.45 50.81 58.55 74.71 58.55 74.79 11.69 121.57 45.56 121.57 58.55 108.57 58.55 155.07 58.48 155.15 58.48 190.29 58.55 190.21 58.55 211.94 82.45 211.94 82.45 166.32 100.16 148.6 100.16 113.46 85.03 128.59 85.03 128.58"/><polygon class="cls-33" points="237.97 121.52 271.83 121.52 224.98 74.74 224.98 74.66 201.08 50.76 201.08 84.56 201.08 131.12 198.49 128.53 198.49 128.54 183.36 113.41 183.36 148.55 201.08 166.27 201.08 211.9 224.98 211.9 224.98 190.17 225.04 190.24 225.04 155.09 224.98 155.03 224.98 108.52 237.97 121.52"/><polygon class="cls-33" points="195.35 45.04 176.59 26.27 176.57 26.27 153.81 3.49 153.81 211.9 177.7 211.9 177.7 60.96 195.35 78.61 195.35 45.04"/><polygon class="cls-33" points="106.77 26.27 88 45.04 88 78.61 105.66 60.96 105.66 211.9 129.55 211.9 129.55 3.49 106.78 26.27 106.77 26.27"/><polygon class="cls-33" points="84.87 128.53 82.28 131.12 82.28 84.56 82.28 50.76 58.39 74.66 58.39 74.74 11.53 121.52 45.39 121.52 58.39 108.52 58.39 155.02 58.31 155.09 58.31 190.24 58.39 190.16 58.39 211.9 82.28 211.9 82.28 166.27 100 148.55 100 113.41 84.87 128.54 84.87 128.53"/><polygon class="cls-34" points="237.81 121.47 271.67 121.47 224.81 74.69 224.81 74.61 200.91 50.71 200.91 84.52 200.91 131.07 198.33 128.49 198.33 128.5 183.19 113.36 183.19 148.5 200.91 166.22 200.91 211.85 224.81 211.85 224.81 190.13 224.88 190.19 224.88 155.05 224.81 154.98 224.81 108.47 237.81 121.47"/><polygon class="cls-34" points="195.19 44.99 176.42 26.22 176.41 26.22 153.65 3.44 153.65 211.85 177.54 211.85 177.54 60.91 195.19 78.56 195.19 44.99"/><polygon class="cls-34" points="106.61 26.22 87.83 44.99 87.83 78.56 105.5 60.91 105.5 211.85 129.39 211.85 129.39 3.44 106.62 26.22 106.61 26.22"/><polygon class="cls-34" points="84.7 128.49 82.12 131.07 82.12 84.52 82.12 50.71 58.23 74.61 58.23 74.69 11.37 121.47 45.23 121.47 58.23 108.47 58.23 154.97 58.15 155.05 58.15 190.19 58.23 190.11 58.23 211.85 82.12 211.85 82.12 166.22 99.83 148.5 99.83 113.36 84.7 128.5 84.7 128.49"/><polygon class="cls-35" points="237.65 121.42 271.5 121.42 224.65 74.64 224.65 74.56 200.75 50.66 200.75 84.47 200.75 131.02 198.17 128.44 198.17 128.45 183.03 113.31 183.03 148.45 200.75 166.17 200.75 211.8 224.65 211.8 224.65 190.08 224.72 190.14 224.72 155 224.65 154.93 224.65 108.42 237.65 121.42"/><polygon class="cls-35" points="195.03 44.94 176.26 26.17 176.25 26.17 153.49 3.39 153.49 211.8 177.38 211.8 177.38 60.86 195.03 78.51 195.03 44.94"/><polygon class="cls-35" points="106.45 26.17 87.67 44.94 87.67 78.51 105.34 60.86 105.34 211.8 129.23 211.8 129.23 3.39 106.46 26.17 106.45 26.17"/><polygon class="cls-35" points="84.54 128.44 81.96 131.02 81.96 84.47 81.96 50.66 58.06 74.56 58.06 74.64 11.21 121.42 45.07 121.42 58.06 108.42 58.06 154.92 57.99 155 57.99 190.14 58.06 190.06 58.06 211.8 81.96 211.8 81.96 166.17 99.67 148.45 99.67 113.31 84.54 128.45 84.54 128.44"/><polygon class="cls-36" points="237.48 121.37 271.34 121.37 224.49 74.6 224.49 74.51 200.59 50.62 200.59 84.42 200.59 130.97 198.01 128.39 198.01 128.4 182.87 113.26 182.87 148.4 200.59 166.13 200.59 211.75 224.49 211.75 224.49 190.03 224.56 190.09 224.56 154.95 224.49 154.88 224.49 108.38 237.48 121.37"/><polygon class="cls-36" points="194.86 44.89 176.1 26.12 176.08 26.12 153.32 3.34 153.32 211.75 177.22 211.75 177.22 60.81 194.86 78.46 194.86 44.89"/><polygon class="cls-36" points="106.28 26.12 87.51 44.89 87.51 78.46 105.17 60.81 105.17 211.75 129.06 211.75 129.06 3.34 106.29 26.12 106.28 26.12"/><polygon class="cls-36" points="84.38 128.39 81.8 130.97 81.8 84.42 81.8 50.62 57.9 74.51 57.9 74.6 11.04 121.37 44.91 121.37 57.9 108.38 57.9 154.87 57.83 154.95 57.83 190.09 57.9 190.02 57.9 211.75 81.8 211.75 81.8 166.13 99.51 148.4 99.51 113.26 84.38 128.4 84.38 128.39"/><polygon class="cls-37" points="237.32 121.32 271.18 121.32 224.33 74.55 224.33 74.46 200.43 50.56 200.43 84.37 200.43 130.92 197.84 128.34 197.84 128.35 182.71 113.21 182.71 148.35 200.43 166.07 200.43 211.7 224.33 211.7 224.33 189.98 224.39 190.04 224.39 154.9 224.33 154.83 224.33 108.33 237.32 121.32"/><polygon class="cls-37" points="194.7 44.84 175.94 26.07 175.92 26.07 153.16 3.29 153.16 211.7 177.05 211.7 177.05 60.76 194.7 78.41 194.7 44.84"/><polygon class="cls-37" points="106.12 26.07 87.35 44.84 87.35 78.41 105.01 60.76 105.01 211.7 128.9 211.7 128.9 3.29 106.13 26.07 106.12 26.07"/><polygon class="cls-37" points="84.22 128.34 81.63 130.92 81.63 84.37 81.63 50.56 57.74 74.46 57.74 74.55 10.88 121.32 44.74 121.32 57.74 108.33 57.74 154.82 57.66 154.9 57.66 190.04 57.74 189.97 57.74 211.7 81.63 211.7 81.63 166.07 99.35 148.35 99.35 113.21 84.22 128.35 84.22 128.34"/><polygon class="cls-38" points="237.16 121.27 271.02 121.27 224.16 74.5 224.16 74.42 200.26 50.52 200.26 84.32 200.26 130.87 197.68 128.29 197.68 128.3 182.54 113.16 182.54 148.31 200.26 166.03 200.26 211.65 224.16 211.65 224.16 189.93 224.23 189.99 224.23 154.85 224.16 154.78 224.16 108.28 237.16 121.27"/><polygon class="cls-38" points="194.54 44.79 175.77 26.02 175.76 26.02 153 3.24 153 211.65 176.89 211.65 176.89 60.71 194.54 78.36 194.54 44.79"/><polygon class="cls-38" points="105.96 26.02 87.19 44.79 87.19 78.36 104.85 60.71 104.85 211.65 128.74 211.65 128.74 3.24 105.97 26.02 105.96 26.02"/><polygon class="cls-38" points="84.06 128.29 81.47 130.87 81.47 84.32 81.47 50.52 57.58 74.42 57.58 74.5 10.72 121.27 44.58 121.27 57.58 108.28 57.58 154.77 57.5 154.85 57.5 189.99 57.58 189.92 57.58 211.65 81.47 211.65 81.47 166.03 99.18 148.31 99.18 113.16 84.06 128.3 84.06 128.29"/><polygon class="cls-39" points="237 121.22 270.86 121.22 224 74.45 224 74.37 200.1 50.47 200.1 84.27 200.1 130.82 197.52 128.24 197.52 128.25 182.38 113.11 182.38 148.26 200.1 165.98 200.1 211.6 224 211.6 224 189.88 224.07 189.94 224.07 154.8 224 154.74 224 108.23 237 121.22"/><polygon class="cls-39" points="194.38 44.74 175.61 25.97 175.6 25.97 152.84 3.19 152.84 211.6 176.73 211.6 176.73 60.66 194.38 78.31 194.38 44.74"/><polygon class="cls-39" points="105.8 25.97 87.02 44.74 87.02 78.31 104.69 60.66 104.69 211.6 128.58 211.6 128.58 3.19 105.81 25.97 105.8 25.97"/><polygon class="cls-39" points="83.89 128.24 81.31 130.82 81.31 84.27 81.31 50.47 57.41 74.37 57.41 74.45 10.56 121.22 44.42 121.22 57.41 108.23 57.41 154.72 57.34 154.8 57.34 189.94 57.41 189.87 57.41 211.6 81.31 211.6 81.31 165.98 99.02 148.26 99.02 113.11 83.89 128.25 83.89 128.24"/><polygon class="cls-40" points="236.83 121.17 270.69 121.17 223.84 74.4 223.84 74.32 199.94 50.42 199.94 84.22 199.94 130.77 197.36 128.19 197.36 128.2 182.22 113.06 182.22 148.21 199.94 165.93 199.94 211.55 223.84 211.55 223.84 189.83 223.91 189.9 223.91 154.75 223.84 154.69 223.84 108.18 236.83 121.17"/><polygon class="cls-40" points="194.21 44.69 175.45 25.92 175.43 25.92 152.68 3.14 152.68 211.55 176.57 211.55 176.57 60.61 194.21 78.27 194.21 44.69"/><polygon class="cls-40" points="105.63 25.92 86.86 44.69 86.86 78.27 104.53 60.61 104.53 211.55 128.41 211.55 128.41 3.14 105.64 25.92 105.63 25.92"/><polygon class="cls-40" points="83.73 128.19 81.15 130.77 81.15 84.22 81.15 50.42 57.25 74.32 57.25 74.4 10.39 121.17 44.26 121.17 57.25 108.18 57.25 154.68 57.18 154.75 57.18 189.9 57.25 189.82 57.25 211.55 81.15 211.55 81.15 165.93 98.86 148.21 98.86 113.06 83.73 128.2 83.73 128.19"/><polygon class="cls-41" points="236.67 121.13 270.53 121.13 223.68 74.35 223.68 74.27 199.78 50.37 199.78 84.17 199.78 130.73 197.19 128.14 197.19 128.15 182.06 113.02 182.06 148.16 199.78 165.88 199.78 211.5 223.68 211.5 223.68 189.78 223.74 189.84 223.74 154.7 223.68 154.64 223.68 108.13 236.67 121.13"/><polygon class="cls-41" points="194.05 44.64 175.29 25.87 175.27 25.87 152.51 3.09 152.51 211.5 176.41 211.5 176.41 60.56 194.05 78.22 194.05 44.64"/><polygon class="cls-41" points="105.47 25.87 86.7 44.64 86.7 78.22 104.36 60.56 104.36 211.5 128.25 211.5 128.25 3.09 105.48 25.87 105.47 25.87"/><polygon class="cls-41" points="83.57 128.14 80.98 130.72 80.98 84.17 80.98 50.37 57.09 74.27 57.09 74.35 10.23 121.13 44.09 121.13 57.09 108.13 57.09 154.63 57.01 154.7 57.01 189.84 57.09 189.77 57.09 211.5 80.98 211.5 80.98 165.88 98.7 148.16 98.7 113.02 83.57 128.15 83.57 128.14"/><polygon class="cls-42" points="236.51 121.08 270.37 121.08 223.52 74.3 223.52 74.22 199.61 50.32 199.61 84.12 199.61 130.68 197.03 128.09 197.03 128.1 181.9 112.97 181.9 148.11 199.61 165.83 199.61 211.45 223.52 211.45 223.52 189.73 223.58 189.8 223.58 154.65 223.52 154.59 223.52 108.08 236.51 121.08"/><polygon class="cls-42" points="193.89 44.59 175.12 25.83 175.11 25.83 152.35 3.05 152.35 211.45 176.24 211.45 176.24 60.51 193.89 78.17 193.89 44.59"/><polygon class="cls-42" points="105.31 25.83 86.54 44.59 86.54 78.17 104.2 60.51 104.2 211.45 128.09 211.45 128.09 3.05 105.32 25.83 105.31 25.83"/><polygon class="cls-42" points="83.41 128.09 80.82 130.68 80.82 84.12 80.82 50.32 56.93 74.22 56.93 74.3 10.07 121.08 43.93 121.08 56.93 108.08 56.93 154.58 56.85 154.65 56.85 189.8 56.93 189.72 56.93 211.45 80.82 211.45 80.82 165.83 98.53 148.11 98.53 112.97 83.41 128.1 83.41 128.09"/><polygon class="cls-43" points="236.35 121.03 270.2 121.03 223.35 74.25 223.35 74.17 199.45 50.27 199.45 84.07 199.45 130.63 196.87 128.04 196.87 128.05 181.73 112.92 181.73 148.06 199.45 165.78 199.45 211.4 223.35 211.4 223.35 189.68 223.42 189.75 223.42 154.6 223.35 154.54 223.35 108.03 236.35 121.03"/><polygon class="cls-43" points="193.73 44.55 174.96 25.78 174.95 25.78 152.19 3 152.19 211.4 176.08 211.4 176.08 60.46 193.73 78.12 193.73 44.55"/><polygon class="cls-43" points="105.15 25.78 86.37 44.55 86.37 78.12 104.04 60.46 104.04 211.4 127.93 211.4 127.93 3 105.16 25.78 105.15 25.78"/><polygon class="cls-43" points="83.24 128.04 80.66 130.63 80.66 84.07 80.66 50.27 56.77 74.17 56.77 74.25 9.91 121.03 43.77 121.03 56.77 108.03 56.77 154.53 56.69 154.6 56.69 189.75 56.77 189.67 56.77 211.4 80.66 211.4 80.66 165.78 98.37 148.06 98.37 112.92 83.24 128.05 83.24 128.04"/><polygon class="cls-44" points="236.18 120.98 270.04 120.98 223.19 74.2 223.19 74.12 199.29 50.22 199.29 84.02 199.29 130.58 196.71 127.99 196.71 128 181.57 112.87 181.57 148.01 199.29 165.73 199.29 211.35 223.19 211.35 223.19 189.63 223.26 189.7 223.26 154.56 223.19 154.49 223.19 107.98 236.18 120.98"/><polygon class="cls-44" points="193.56 44.5 174.8 25.73 174.78 25.73 152.03 2.95 152.03 211.35 175.92 211.35 175.92 60.41 193.56 78.07 193.56 44.5"/><polygon class="cls-44" points="104.98 25.73 86.21 44.5 86.21 78.07 103.88 60.41 103.88 211.35 127.76 211.35 127.76 2.95 105 25.73 104.98 25.73"/><polygon class="cls-44" points="83.08 127.99 80.5 130.58 80.5 84.02 80.5 50.22 56.6 74.12 56.6 74.2 9.74 120.98 43.61 120.98 56.6 107.98 56.6 154.48 56.53 154.56 56.53 189.7 56.6 189.62 56.6 211.35 80.5 211.35 80.5 165.73 98.21 148.01 98.21 112.87 83.08 128 83.08 127.99"/><polygon class="cls-45" points="236.02 120.93 269.88 120.93 223.03 74.15 223.03 74.07 199.13 50.17 199.13 83.97 199.13 130.53 196.54 127.94 196.54 127.95 181.41 112.82 181.41 147.96 199.13 165.68 199.13 211.31 223.03 211.31 223.03 189.58 223.09 189.65 223.09 154.51 223.03 154.44 223.03 107.93 236.02 120.93"/><polygon class="cls-45" points="193.4 44.45 174.64 25.68 174.62 25.68 151.86 2.9 151.86 211.31 175.75 211.31 175.75 60.37 193.4 78.02 193.4 44.45"/><polygon class="cls-45" points="104.82 25.68 86.05 44.45 86.05 78.02 103.71 60.37 103.71 211.31 127.6 211.31 127.6 2.9 104.83 25.68 104.82 25.68"/><polygon class="cls-45" points="82.92 127.94 80.33 130.53 80.33 83.97 80.33 50.17 56.44 74.07 56.44 74.15 9.58 120.93 43.44 120.93 56.44 107.93 56.44 154.43 56.37 154.51 56.37 189.65 56.44 189.57 56.44 211.31 80.33 211.31 80.33 165.68 98.05 147.96 98.05 112.82 82.92 127.95 82.92 127.94"/><polygon class="cls-46" points="235.86 120.88 269.72 120.88 222.87 74.1 222.87 74.02 198.96 50.12 198.96 83.92 198.96 130.48 196.38 127.89 196.38 127.91 181.25 112.77 181.25 147.91 198.96 165.63 198.96 211.26 222.87 211.26 222.87 189.53 222.93 189.6 222.93 154.46 222.87 154.39 222.87 107.89 235.86 120.88"/><polygon class="cls-46" points="193.24 44.4 174.47 25.63 174.46 25.63 151.7 2.85 151.7 211.26 175.59 211.26 175.59 60.32 193.24 77.97 193.24 44.4"/><polygon class="cls-46" points="104.66 25.63 85.89 44.4 85.89 77.97 103.55 60.32 103.55 211.26 127.44 211.26 127.44 2.85 104.67 25.63 104.66 25.63"/><polygon class="cls-46" points="82.76 127.89 80.17 130.48 80.17 83.92 80.17 50.12 56.28 74.02 56.28 74.1 9.42 120.88 43.28 120.88 56.28 107.89 56.28 154.38 56.2 154.46 56.2 189.6 56.28 189.52 56.28 211.26 80.17 211.26 80.17 165.63 97.89 147.91 97.89 112.77 82.76 127.91 82.76 127.89"/><polygon class="cls-47" points="235.7 120.83 269.56 120.83 222.7 74.06 222.7 73.97 198.8 50.08 198.8 83.88 198.8 130.43 196.22 127.85 196.22 127.86 181.08 112.72 181.08 147.86 198.8 165.58 198.8 211.21 222.7 211.21 222.7 189.49 222.77 189.55 222.77 154.41 222.7 154.34 222.7 107.84 235.7 120.83"/><polygon class="cls-47" points="193.08 44.35 174.31 25.58 174.3 25.58 151.54 2.8 151.54 211.21 175.43 211.21 175.43 60.27 193.08 77.92 193.08 44.35"/><polygon class="cls-47" points="104.5 25.58 85.72 44.35 85.72 77.92 103.39 60.27 103.39 211.21 127.28 211.21 127.28 2.8 104.51 25.58 104.5 25.58"/><polygon class="cls-47" points="82.59 127.85 80.01 130.43 80.01 83.88 80.01 50.08 56.12 73.97 56.12 74.06 9.26 120.83 43.12 120.83 56.12 107.84 56.12 154.33 56.04 154.41 56.04 189.55 56.12 189.48 56.12 211.21 80.01 211.21 80.01 165.58 97.72 147.86 97.72 112.72 82.59 127.86 82.59 127.85"/><polygon class="cls-48" points="235.53 120.78 269.39 120.78 222.54 74.01 222.54 73.92 198.64 50.02 198.64 83.83 198.64 130.38 196.06 127.8 196.06 127.81 180.92 112.67 180.92 147.81 198.64 165.53 198.64 211.16 222.54 211.16 222.54 189.44 222.61 189.5 222.61 154.36 222.54 154.29 222.54 107.79 235.53 120.78"/><polygon class="cls-48" points="192.91 44.3 174.15 25.53 174.13 25.53 151.38 2.75 151.38 211.16 175.27 211.16 175.27 60.22 192.91 77.87 192.91 44.3"/><polygon class="cls-48" points="104.33 25.53 85.56 44.3 85.56 77.87 103.23 60.22 103.23 211.16 127.11 211.16 127.11 2.75 104.34 25.53 104.33 25.53"/><polygon class="cls-48" points="82.43 127.8 79.85 130.38 79.85 83.83 79.85 50.02 55.95 73.92 55.95 74.01 9.1 120.78 42.96 120.78 55.95 107.79 55.95 154.28 55.88 154.36 55.88 189.5 55.95 189.43 55.95 211.16 79.85 211.16 79.85 165.53 97.56 147.81 97.56 112.67 82.43 127.81 82.43 127.8"/><polygon class="cls-49" points="235.37 120.73 269.23 120.73 222.38 73.96 222.38 73.87 198.48 49.98 198.48 83.78 198.48 130.33 195.9 127.75 195.9 127.76 180.76 112.62 180.76 147.77 198.48 165.49 198.48 211.11 222.38 211.11 222.38 189.39 222.44 189.45 222.44 154.31 222.38 154.25 222.38 107.74 235.37 120.73"/><polygon class="cls-49" points="192.75 44.25 173.99 25.48 173.97 25.48 151.21 2.7 151.21 211.11 175.11 211.11 175.11 60.17 192.75 77.82 192.75 44.25"/><polygon class="cls-49" points="104.17 25.48 85.4 44.25 85.4 77.82 103.06 60.17 103.06 211.11 126.95 211.11 126.95 2.7 104.18 25.48 104.17 25.48"/><polygon class="cls-49" points="82.27 127.75 79.69 130.33 79.69 83.78 79.69 49.98 55.79 73.87 55.79 73.96 8.93 120.73 42.8 120.73 55.79 107.74 55.79 154.23 55.72 154.31 55.72 189.45 55.79 189.38 55.79 211.11 79.69 211.11 79.69 165.49 97.4 147.77 97.4 112.62 82.27 127.76 82.27 127.75"/><polygon class="cls-50" points="235.21 120.68 269.07 120.68 222.22 73.91 222.22 73.83 198.31 49.93 198.31 83.73 198.31 130.28 195.73 127.7 195.73 127.71 180.6 112.57 180.6 147.72 198.31 165.44 198.31 211.06 222.22 211.06 222.22 189.34 222.28 189.4 222.28 154.26 222.22 154.19 222.22 107.69 235.21 120.68"/><polygon class="cls-50" points="192.59 44.2 173.82 25.43 173.81 25.43 151.05 2.65 151.05 211.06 174.94 211.06 174.94 60.12 192.59 77.77 192.59 44.2"/><polygon class="cls-50" points="104.01 25.43 85.24 44.2 85.24 77.77 102.9 60.12 102.9 211.06 126.79 211.06 126.79 2.65 104.02 25.43 104.01 25.43"/><polygon class="cls-50" points="82.11 127.7 79.52 130.28 79.52 83.73 79.52 49.93 55.63 73.83 55.63 73.91 8.77 120.68 42.63 120.68 55.63 107.69 55.63 154.18 55.55 154.26 55.55 189.4 55.63 189.33 55.63 211.06 79.52 211.06 79.52 165.44 97.23 147.72 97.23 112.57 82.11 127.71 82.11 127.7"/><polygon class="cls-51" points="235.05 120.64 268.91 120.64 222.05 73.86 222.05 73.78 198.15 49.88 198.15 83.68 198.15 130.23 195.57 127.65 195.57 127.66 180.43 112.52 180.43 147.67 198.15 165.39 198.15 211.01 222.05 211.01 222.05 189.29 222.12 189.35 222.12 154.21 222.05 154.15 222.05 107.64 235.05 120.64"/><polygon class="cls-51" points="192.43 44.15 173.66 25.38 173.65 25.38 150.89 2.6 150.89 211.01 174.78 211.01 174.78 60.07 192.43 77.72 192.43 44.15"/><polygon class="cls-51" points="103.85 25.38 85.08 44.15 85.08 77.72 102.74 60.07 102.74 211.01 126.63 211.01 126.63 2.6 103.86 25.38 103.85 25.38"/><polygon class="cls-51" points="81.94 127.65 79.36 130.23 79.36 83.68 79.36 49.88 55.47 73.78 55.47 73.86 8.61 120.64 42.47 120.64 55.47 107.64 55.47 154.13 55.39 154.21 55.39 189.35 55.47 189.28 55.47 211.01 79.36 211.01 79.36 165.39 97.07 147.67 97.07 112.52 81.94 127.66 81.94 127.65"/><polygon class="cls-52" points="234.88 120.59 268.74 120.59 221.89 73.81 221.89 73.73 197.99 49.83 197.99 83.63 197.99 130.19 195.41 127.6 195.41 127.61 180.27 112.47 180.27 147.62 197.99 165.34 197.99 210.96 221.89 210.96 221.89 189.24 221.96 189.31 221.96 154.16 221.89 154.1 221.89 107.59 234.88 120.59"/><polygon class="cls-52" points="192.26 44.1 173.5 25.33 173.49 25.33 150.73 2.55 150.73 210.96 174.62 210.96 174.62 60.02 192.26 77.68 192.26 44.1"/><polygon class="cls-52" points="103.69 25.33 84.91 44.1 84.91 77.68 102.58 60.02 102.58 210.96 126.47 210.96 126.47 2.55 103.7 25.33 103.69 25.33"/><polygon class="cls-52" points="81.78 127.6 79.2 130.18 79.2 83.63 79.2 49.83 55.3 73.73 55.3 73.81 8.45 120.59 42.31 120.59 55.3 107.59 55.3 154.09 55.23 154.16 55.23 189.31 55.3 189.23 55.3 210.96 79.2 210.96 79.2 165.34 96.91 147.62 96.91 112.47 81.78 127.61 81.78 127.6"/><polygon class="cls-53" points="234.72 120.54 268.58 120.54 221.73 73.76 221.73 73.68 197.83 49.78 197.83 83.58 197.83 130.14 195.25 127.55 195.25 127.56 180.11 112.43 180.11 147.57 197.83 165.29 197.83 210.91 221.73 210.91 221.73 189.19 221.79 189.26 221.79 154.11 221.73 154.05 221.73 107.54 234.72 120.54"/><polygon class="cls-53" points="192.1 44.05 173.34 25.29 173.32 25.29 150.56 2.5 150.56 210.91 174.46 210.91 174.46 59.97 192.1 77.63 192.1 44.05"/><polygon class="cls-53" points="103.52 25.29 84.75 44.05 84.75 77.63 102.41 59.97 102.41 210.91 126.3 210.91 126.3 2.5 103.53 25.29 103.52 25.29"/><polygon class="cls-53" points="81.62 127.55 79.04 130.13 79.04 83.58 79.04 49.78 55.14 73.68 55.14 73.76 8.28 120.54 42.15 120.54 55.14 107.54 55.14 154.04 55.06 154.11 55.06 189.26 55.14 189.18 55.14 210.91 79.04 210.91 79.04 165.29 96.75 147.57 96.75 112.43 81.62 127.56 81.62 127.55"/><polygon class="cls-54" points="234.56 120.49 268.42 120.49 221.57 73.71 221.57 73.63 197.66 49.73 197.66 83.53 197.66 130.09 195.08 127.5 195.08 127.51 179.95 112.38 179.95 147.52 197.66 165.24 197.66 210.86 221.57 210.86 221.57 189.14 221.63 189.21 221.63 154.06 221.57 154 221.57 107.49 234.56 120.49"/><polygon class="cls-54" points="191.94 44.01 173.17 25.23 173.16 25.23 150.4 2.46 150.4 210.86 174.29 210.86 174.29 59.92 191.94 77.58 191.94 44.01"/><polygon class="cls-54" points="103.36 25.23 84.59 44.01 84.59 77.58 102.25 59.92 102.25 210.86 126.14 210.86 126.14 2.46 103.37 25.23 103.36 25.23"/><polygon class="cls-54" points="81.46 127.5 78.87 130.09 78.87 83.53 78.87 49.73 54.98 73.63 54.98 73.71 8.12 120.49 41.98 120.49 54.98 107.49 54.98 153.99 54.9 154.06 54.9 189.21 54.98 189.13 54.98 210.86 78.87 210.86 78.87 165.24 96.59 147.52 96.59 112.38 81.46 127.51 81.46 127.5"/><polygon class="cls-55" points="234.4 120.44 268.26 120.44 221.41 73.66 221.41 73.58 197.5 49.68 197.5 83.48 197.5 130.04 194.92 127.45 194.92 127.47 179.78 112.33 179.78 147.47 197.5 165.19 197.5 210.81 221.41 210.81 221.41 189.09 221.47 189.16 221.47 154.01 221.41 153.95 221.41 107.44 234.4 120.44"/><polygon class="cls-55" points="191.78 43.96 173.01 25.19 173 25.19 150.24 2.41 150.24 210.81 174.13 210.81 174.13 59.88 191.78 77.53 191.78 43.96"/><polygon class="cls-55" points="103.2 25.19 84.42 43.96 84.42 77.53 102.09 59.88 102.09 210.81 125.98 210.81 125.98 2.41 103.21 25.19 103.2 25.19"/><polygon class="cls-55" points="81.29 127.45 78.71 130.04 78.71 83.48 78.71 49.68 54.82 73.58 54.82 73.66 7.96 120.44 41.82 120.44 54.82 107.44 54.82 153.94 54.74 154.01 54.74 189.16 54.82 189.08 54.82 210.81 78.71 210.81 78.71 165.19 96.42 147.47 96.42 112.33 81.29 127.47 81.29 127.45"/><polygon class="cls-56" points="234.24 120.39 268.09 120.39 221.24 73.61 221.24 73.53 197.34 49.63 197.34 83.43 197.34 129.99 194.76 127.4 194.76 127.42 179.62 112.28 179.62 147.42 197.34 165.14 197.34 210.77 221.24 210.77 221.24 189.04 221.31 189.11 221.31 153.97 221.24 153.9 221.24 107.39 234.24 120.39"/><polygon class="cls-56" points="191.62 43.91 172.85 25.14 172.84 25.14 150.08 2.36 150.08 210.77 173.97 210.77 173.97 59.83 191.62 77.48 191.62 43.91"/><polygon class="cls-56" points="103.04 25.14 84.26 43.91 84.26 77.48 101.93 59.83 101.93 210.77 125.82 210.77 125.82 2.36 103.05 25.14 103.04 25.14"/><polygon class="cls-56" points="81.13 127.4 78.55 129.99 78.55 83.43 78.55 49.63 54.65 73.53 54.65 73.61 7.79 120.39 41.66 120.39 54.65 107.39 54.65 153.89 54.58 153.97 54.58 189.11 54.65 189.03 54.65 210.77 78.55 210.77 78.55 165.14 96.26 147.42 96.26 112.28 81.13 127.42 81.13 127.4"/><polygon class="cls-57" points="234.07 120.34 267.93 120.34 221.08 73.56 221.08 73.48 197.18 49.58 197.18 83.39 197.18 129.94 194.59 127.36 194.59 127.37 179.46 112.23 179.46 147.37 197.18 165.09 197.18 210.72 221.08 210.72 221.08 189 221.15 189.06 221.15 153.92 221.08 153.85 221.08 107.34 234.07 120.34"/><polygon class="cls-57" points="191.45 43.86 172.69 25.09 172.67 25.09 149.91 2.31 149.91 210.72 173.81 210.72 173.81 59.78 191.45 77.43 191.45 43.86"/><polygon class="cls-57" points="102.87 25.09 84.1 43.86 84.1 77.43 101.76 59.78 101.76 210.72 125.65 210.72 125.65 2.31 102.88 25.09 102.87 25.09"/><polygon class="cls-57" points="80.97 127.36 78.39 129.94 78.39 83.39 78.39 49.58 54.49 73.48 54.49 73.56 7.63 120.34 41.5 120.34 54.49 107.34 54.49 153.84 54.41 153.92 54.41 189.06 54.49 188.98 54.49 210.72 78.39 210.72 78.39 165.09 96.1 147.37 96.1 112.23 80.97 127.37 80.97 127.36"/><polygon class="cls-58" points="233.91 120.29 267.77 120.29 220.92 73.52 220.92 73.43 197.02 49.53 197.02 83.34 197.02 129.89 194.43 127.31 194.43 127.32 179.3 112.18 179.3 147.32 197.02 165.04 197.02 210.67 220.92 210.67 220.92 188.95 220.98 189.01 220.98 153.87 220.92 153.8 220.92 107.3 233.91 120.29"/><polygon class="cls-58" points="191.29 43.81 172.53 25.04 172.51 25.04 149.75 2.26 149.75 210.67 173.64 210.67 173.64 59.73 191.29 77.38 191.29 43.81"/><polygon class="cls-58" points="102.71 25.04 83.94 43.81 83.94 77.38 101.6 59.73 101.6 210.67 125.49 210.67 125.49 2.26 102.72 25.04 102.71 25.04"/><polygon class="cls-58" points="80.81 127.31 78.22 129.89 78.22 83.34 78.22 49.53 54.33 73.43 54.33 73.52 7.47 120.29 41.33 120.29 54.33 107.3 54.33 153.79 54.25 153.87 54.25 189.01 54.33 188.94 54.33 210.67 78.22 210.67 78.22 165.04 95.94 147.32 95.94 112.18 80.81 127.32 80.81 127.31"/><polygon class="cls-59" points="233.75 120.24 267.61 120.24 220.75 73.47 220.75 73.38 196.85 49.48 196.85 83.29 196.85 129.84 194.27 127.26 194.27 127.27 179.13 112.13 179.13 147.28 196.85 164.99 196.85 210.62 220.75 210.62 220.75 188.9 220.82 188.96 220.82 153.82 220.75 153.75 220.75 107.25 233.75 120.24"/><polygon class="cls-59" points="191.13 43.76 172.36 24.99 172.35 24.99 149.59 2.21 149.59 210.62 173.48 210.62 173.48 59.68 191.13 77.33 191.13 43.76"/><polygon class="cls-59" points="102.55 24.99 83.78 43.76 83.78 77.33 101.44 59.68 101.44 210.62 125.33 210.62 125.33 2.21 102.56 24.99 102.55 24.99"/><polygon class="cls-59" points="80.64 127.26 78.06 129.84 78.06 83.29 78.06 49.48 54.17 73.38 54.17 73.47 7.31 120.24 41.17 120.24 54.17 107.25 54.17 153.74 54.09 153.82 54.09 188.96 54.17 188.89 54.17 210.62 78.06 210.62 78.06 164.99 95.77 147.28 95.77 112.13 80.64 127.27 80.64 127.26"/><polygon class="cls-60" points="233.58 120.19 267.44 120.19 220.59 73.42 220.59 73.33 196.69 49.44 196.69 83.24 196.69 129.79 194.11 127.21 194.11 127.22 178.97 112.08 178.97 147.23 196.69 164.94 196.69 210.57 220.59 210.57 220.59 188.85 220.66 188.91 220.66 153.77 220.59 153.71 220.59 107.2 233.58 120.19"/><polygon class="cls-60" points="190.97 43.71 172.2 24.94 172.19 24.94 149.43 2.16 149.43 210.57 173.32 210.57 173.32 59.63 190.97 77.28 190.97 43.71"/><polygon class="cls-60" points="102.39 24.94 83.61 43.71 83.61 77.28 101.28 59.63 101.28 210.57 125.17 210.57 125.17 2.16 102.4 24.94 102.39 24.94"/><polygon class="cls-60" points="80.48 127.21 77.9 129.79 77.9 83.24 77.9 49.44 54 73.33 54 73.42 7.15 120.19 41.01 120.19 54 107.2 54 153.69 53.93 153.77 53.93 188.91 54 188.84 54 210.57 77.9 210.57 77.9 164.94 95.61 147.23 95.61 112.08 80.48 127.22 80.48 127.21"/><polygon class="cls-61" points="233.42 120.14 267.28 120.14 220.43 73.37 220.43 73.28 196.53 49.39 196.53 83.19 196.53 129.74 193.95 127.16 193.95 127.17 178.81 112.03 178.81 147.18 196.53 164.9 196.53 210.52 220.43 210.52 220.43 188.8 220.5 188.86 220.5 153.72 220.43 153.66 220.43 107.15 233.42 120.14"/><polygon class="cls-61" points="190.8 43.66 172.04 24.89 172.02 24.89 149.26 2.11 149.26 210.52 173.16 210.52 173.16 59.58 190.8 77.23 190.8 43.66"/><polygon class="cls-61" points="102.22 24.89 83.45 43.66 83.45 77.23 101.11 59.58 101.11 210.52 125 210.52 125 2.11 102.23 24.89 102.22 24.89"/><polygon class="cls-61" points="80.32 127.16 77.74 129.74 77.74 83.19 77.74 49.39 53.84 73.28 53.84 73.37 6.98 120.14 40.85 120.14 53.84 107.15 53.84 153.65 53.77 153.72 53.77 188.86 53.84 188.79 53.84 210.52 77.74 210.52 77.74 164.9 95.45 147.18 95.45 112.03 80.32 127.17 80.32 127.16"/><polygon class="cls-62" points="233.26 120.09 267.12 120.09 220.27 73.32 220.27 73.24 196.37 49.34 196.37 83.14 196.37 129.69 193.78 127.11 193.78 127.12 178.65 111.98 178.65 147.13 196.37 164.85 196.37 210.47 220.27 210.47 220.27 188.75 220.33 188.81 220.33 153.67 220.27 153.61 220.27 107.1 233.26 120.09"/><polygon class="cls-62" points="190.64 43.61 171.88 24.84 171.86 24.84 149.1 2.06 149.1 210.47 173 210.47 173 59.53 190.64 77.18 190.64 43.61"/><polygon class="cls-62" points="102.06 24.84 83.29 43.61 83.29 77.18 100.95 59.53 100.95 210.47 124.84 210.47 124.84 2.06 102.07 24.84 102.06 24.84"/><polygon class="cls-62" points="80.16 127.11 77.57 129.69 77.57 83.14 77.57 49.34 53.68 73.24 53.68 73.32 6.82 120.09 40.68 120.09 53.68 107.1 53.68 153.6 53.6 153.67 53.6 188.81 53.68 188.74 53.68 210.47 77.57 210.47 77.57 164.85 95.29 147.13 95.29 111.98 80.16 127.12 80.16 127.11"/><polygon class="cls-63" points="233.1 120.05 266.96 120.05 220.11 73.27 220.11 73.19 196.2 49.29 196.2 83.09 196.2 129.65 193.62 127.06 193.62 127.07 178.49 111.93 178.49 147.08 196.2 164.8 196.2 210.42 220.11 210.42 220.11 188.7 220.17 188.76 220.17 153.62 220.11 153.56 220.11 107.05 233.1 120.05"/><polygon class="cls-63" points="190.48 43.56 171.71 24.79 171.7 24.79 148.94 2.01 148.94 210.42 172.83 210.42 172.83 59.48 190.48 77.14 190.48 43.56"/><polygon class="cls-63" points="101.9 24.79 83.13 43.56 83.13 77.14 100.79 59.48 100.79 210.42 124.68 210.42 124.68 2.01 101.91 24.79 101.9 24.79"/><polygon class="cls-63" points="80 127.06 77.41 129.64 77.41 83.09 77.41 49.29 53.52 73.19 53.52 73.27 6.66 120.05 40.52 120.05 53.52 107.05 53.52 153.55 53.44 153.62 53.44 188.76 53.52 188.69 53.52 210.42 77.41 210.42 77.41 164.8 95.12 147.08 95.12 111.93 80 127.07 80 127.06"/><polygon class="cls-64" points="232.94 120 266.79 120 219.94 73.22 219.94 73.14 196.04 49.24 196.04 83.04 196.04 129.6 193.46 127.01 193.46 127.02 178.32 111.89 178.32 147.03 196.04 164.75 196.04 210.37 219.94 210.37 219.94 188.65 220.01 188.72 220.01 153.57 219.94 153.51 219.94 107 232.94 120"/><polygon class="cls-64" points="190.32 43.52 171.55 24.75 171.54 24.75 148.78 1.97 148.78 210.37 172.67 210.37 172.67 59.43 190.32 77.09 190.32 43.52"/><polygon class="cls-64" points="101.74 24.75 82.96 43.52 82.96 77.09 100.63 59.43 100.63 210.37 124.52 210.37 124.52 1.97 101.75 24.75 101.74 24.75"/><polygon class="cls-64" points="79.83 127.01 77.25 129.59 77.25 83.04 77.25 49.24 53.35 73.14 53.35 73.22 6.5 120 40.36 120 53.35 107 53.35 153.5 53.28 153.57 53.28 188.72 53.35 188.64 53.35 210.37 77.25 210.37 77.25 164.75 94.96 147.03 94.96 111.89 79.83 127.02 79.83 127.01"/><polygon class="cls-65" points="232.77 119.95 266.63 119.95 219.78 73.17 219.78 73.09 195.88 49.19 195.88 82.99 195.88 129.55 193.3 126.96 193.3 126.97 178.16 111.84 178.16 146.98 195.88 164.7 195.88 210.32 219.78 210.32 219.78 188.6 219.84 188.67 219.84 153.52 219.78 153.46 219.78 106.95 232.77 119.95"/><polygon class="cls-65" points="190.15 43.47 171.39 24.7 171.37 24.7 148.62 1.92 148.62 210.32 172.51 210.32 172.51 59.38 190.15 77.04 190.15 43.47"/><polygon class="cls-65" points="101.57 24.7 82.8 43.47 82.8 77.04 100.47 59.38 100.47 210.32 124.35 210.32 124.35 1.92 101.58 24.7 101.57 24.7"/><polygon class="cls-65" points="79.67 126.96 77.09 129.54 77.09 82.99 77.09 49.19 53.19 73.09 53.19 73.17 6.33 119.95 40.2 119.95 53.19 106.95 53.19 153.45 53.12 153.52 53.12 188.67 53.19 188.59 53.19 210.32 77.09 210.32 77.09 164.7 94.8 146.98 94.8 111.84 79.67 126.97 79.67 126.96"/><polygon class="cls-66" points="232.61 119.9 266.47 119.9 219.62 73.12 219.62 73.04 195.72 49.14 195.72 82.94 195.72 129.5 193.13 126.91 193.13 126.92 178 111.79 178 146.93 195.72 164.65 195.72 210.27 219.62 210.27 219.62 188.55 219.68 188.62 219.68 153.47 219.62 153.41 219.62 106.9 232.61 119.9"/><polygon class="cls-66" points="189.99 43.42 171.22 24.65 171.21 24.65 148.45 1.87 148.45 210.27 172.34 210.27 172.34 59.33 189.99 76.99 189.99 43.42"/><polygon class="cls-66" points="101.41 24.65 82.64 43.42 82.64 76.99 100.3 59.33 100.3 210.27 124.19 210.27 124.19 1.87 101.42 24.65 101.41 24.65"/><polygon class="cls-66" points="79.51 126.91 76.92 129.5 76.92 82.94 76.92 49.14 53.03 73.04 53.03 73.12 6.17 119.9 40.03 119.9 53.03 106.9 53.03 153.4 52.95 153.47 52.95 188.62 53.03 188.54 53.03 210.27 76.92 210.27 76.92 164.65 94.64 146.93 94.64 111.79 79.51 126.92 79.51 126.91"/><polygon class="cls-67" points="232.45 119.85 266.31 119.85 219.46 73.07 219.46 72.99 195.55 49.09 195.55 82.89 195.55 129.45 192.97 126.86 192.97 126.88 177.83 111.74 177.83 146.88 195.55 164.6 195.55 210.23 219.46 210.23 219.46 188.5 219.52 188.57 219.52 153.43 219.46 153.36 219.46 106.85 232.45 119.85"/><polygon class="cls-67" points="189.83 43.37 171.06 24.6 171.05 24.6 148.29 1.82 148.29 210.23 172.18 210.23 172.18 59.28 189.83 76.94 189.83 43.37"/><polygon class="cls-67" points="101.25 24.6 82.48 43.37 82.48 76.94 100.14 59.28 100.14 210.23 124.03 210.23 124.03 1.82 101.26 24.6 101.25 24.6"/><polygon class="cls-67" points="79.34 126.86 76.76 129.45 76.76 82.89 76.76 49.09 52.87 72.99 52.87 73.07 6.01 119.85 39.87 119.85 52.87 106.85 52.87 153.35 52.79 153.43 52.79 188.57 52.87 188.49 52.87 210.23 76.76 210.23 76.76 164.6 94.47 146.88 94.47 111.74 79.34 126.88 79.34 126.86"/><polygon class="cls-68" points="232.29 119.8 266.14 119.8 219.29 73.02 219.29 72.94 195.39 49.04 195.39 82.84 195.39 129.4 192.81 126.81 192.81 126.83 177.67 111.69 177.67 146.83 195.39 164.55 195.39 210.18 219.29 210.18 219.29 188.46 219.36 188.52 219.36 153.38 219.29 153.31 219.29 106.8 232.29 119.8"/><polygon class="cls-68" points="189.67 43.32 170.9 24.55 170.89 24.55 148.13 1.77 148.13 210.18 172.02 210.18 172.02 59.24 189.67 76.89 189.67 43.32"/><polygon class="cls-68" points="101.09 24.55 82.31 43.32 82.31 76.89 99.98 59.24 99.98 210.18 123.87 210.18 123.87 1.77 101.1 24.55 101.09 24.55"/><polygon class="cls-68" points="79.18 126.81 76.6 129.4 76.6 82.84 76.6 49.04 52.7 72.94 52.7 73.02 5.85 119.8 39.71 119.8 52.7 106.8 52.7 153.3 52.63 153.38 52.63 188.52 52.7 188.44 52.7 210.18 76.6 210.18 76.6 164.55 94.31 146.83 94.31 111.69 79.18 126.83 79.18 126.81"/><polygon class="cls-69" points="232.12 119.75 265.98 119.75 219.13 72.97 219.13 72.89 195.23 48.99 195.23 82.8 195.23 129.35 192.65 126.77 192.65 126.78 177.51 111.64 177.51 146.78 195.23 164.5 195.23 210.13 219.13 210.13 219.13 188.41 219.2 188.47 219.2 153.33 219.13 153.26 219.13 106.75 232.12 119.75"/><polygon class="cls-69" points="189.5 43.27 170.74 24.5 170.72 24.5 147.97 1.72 147.97 210.13 171.86 210.13 171.86 59.19 189.5 76.84 189.5 43.27"/><polygon class="cls-69" points="100.92 24.5 82.15 43.27 82.15 76.84 99.81 59.19 99.81 210.13 123.7 210.13 123.7 1.72 100.94 24.5 100.92 24.5"/><polygon class="cls-69" points="79.02 126.77 76.44 129.35 76.44 82.8 76.44 48.99 52.54 72.89 52.54 72.97 5.68 119.75 39.55 119.75 52.54 106.75 52.54 153.25 52.47 153.33 52.47 188.47 52.54 188.4 52.54 210.13 76.44 210.13 76.44 164.5 94.15 146.78 94.15 111.64 79.02 126.78 79.02 126.77"/><polygon class="cls-70" points="231.96 119.7 265.82 119.7 218.97 72.93 218.97 72.84 195.07 48.95 195.07 82.75 195.07 129.3 192.48 126.72 192.48 126.73 177.35 111.59 177.35 146.73 195.07 164.45 195.07 210.08 218.97 210.08 218.97 188.36 219.03 188.42 219.03 153.28 218.97 153.21 218.97 106.7 231.96 119.7"/><polygon class="cls-70" points="189.34 43.22 170.58 24.45 170.56 24.45 147.8 1.67 147.8 210.08 171.69 210.08 171.69 59.14 189.34 76.79 189.34 43.22"/><polygon class="cls-70" points="100.76 24.45 81.99 43.22 81.99 76.79 99.65 59.14 99.65 210.08 123.54 210.08 123.54 1.67 100.77 24.45 100.76 24.45"/><polygon class="cls-70" points="78.86 126.72 76.28 129.3 76.28 82.75 76.28 48.95 52.38 72.84 52.38 72.93 5.52 119.7 39.38 119.7 52.38 106.7 52.38 153.2 52.3 153.28 52.3 188.42 52.38 188.35 52.38 210.08 76.28 210.08 76.28 164.45 93.99 146.73 93.99 111.59 78.86 126.73 78.86 126.72"/><polygon class="cls-71" points="231.8 119.65 265.66 119.65 218.81 72.88 218.81 72.79 194.91 48.9 194.91 82.7 194.91 129.25 192.32 126.67 192.32 126.68 177.19 111.54 177.19 146.69 194.91 164.41 194.91 210.03 218.81 210.03 218.81 188.31 218.87 188.37 218.87 153.23 218.81 153.16 218.81 106.66 231.8 119.65"/><polygon class="cls-71" points="189.18 43.17 170.41 24.4 170.4 24.4 147.64 1.62 147.64 210.03 171.53 210.03 171.53 59.09 189.18 76.74 189.18 43.17"/><polygon class="cls-71" points="100.6 24.4 81.83 43.17 81.83 76.74 99.49 59.09 99.49 210.03 123.38 210.03 123.38 1.62 100.61 24.4 100.6 24.4"/><polygon class="cls-71" points="78.7 126.67 76.11 129.25 76.11 82.7 76.11 48.9 52.22 72.79 52.22 72.88 5.36 119.65 39.22 119.65 52.22 106.66 52.22 153.15 52.14 153.23 52.14 188.37 52.22 188.3 52.22 210.03 76.11 210.03 76.11 164.41 93.83 146.69 93.83 111.54 78.7 126.68 78.7 126.67"/><polygon class="cls-72" points="231.64 119.6 265.5 119.6 218.64 72.83 218.64 72.75 194.74 48.85 194.74 82.65 194.74 129.2 192.16 126.62 192.16 126.63 177.02 111.49 177.02 146.64 194.74 164.35 194.74 209.98 218.64 209.98 218.64 188.26 218.71 188.32 218.71 153.18 218.64 153.12 218.64 106.61 231.64 119.6"/><polygon class="cls-72" points="189.02 43.12 170.25 24.35 170.24 24.35 147.48 1.57 147.48 209.98 171.37 209.98 171.37 59.04 189.02 76.69 189.02 43.12"/><polygon class="cls-72" points="100.44 24.35 81.66 43.12 81.66 76.69 99.33 59.04 99.33 209.98 123.22 209.98 123.22 1.57 100.45 24.35 100.44 24.35"/><polygon class="cls-72" points="78.53 126.62 75.95 129.2 75.95 82.65 75.95 48.85 52.05 72.75 52.05 72.83 5.2 119.6 39.06 119.6 52.05 106.61 52.05 153.1 51.98 153.18 51.98 188.32 52.05 188.25 52.05 209.98 75.95 209.98 75.95 164.35 93.66 146.64 93.66 111.49 78.53 126.63 78.53 126.62"/><polygon class="cls-73" points="231.47 119.55 265.33 119.55 218.48 72.78 218.48 72.69 194.58 48.8 194.58 82.6 194.58 129.15 192 126.57 192 126.58 176.86 111.44 176.86 146.59 194.58 164.31 194.58 209.93 218.48 209.93 218.48 188.21 218.55 188.27 218.55 153.13 218.48 153.07 218.48 106.56 231.47 119.55"/><polygon class="cls-73" points="188.85 43.07 170.09 24.3 170.07 24.3 147.32 1.52 147.32 209.93 171.21 209.93 171.21 58.99 188.85 76.64 188.85 43.07"/><polygon class="cls-73" points="100.28 24.3 81.5 43.07 81.5 76.64 99.17 58.99 99.17 209.93 123.06 209.93 123.06 1.52 100.28 24.3 100.28 24.3"/><polygon class="cls-73" points="78.37 126.57 75.79 129.15 75.79 82.6 75.79 48.8 51.89 72.69 51.89 72.78 5.04 119.55 38.9 119.55 51.89 106.56 51.89 153.06 51.82 153.13 51.82 188.27 51.89 188.2 51.89 209.93 75.79 209.93 75.79 164.31 93.5 146.59 93.5 111.44 78.37 126.58 78.37 126.57"/><polygon class="cls-74" points="231.31 119.5 265.17 119.5 218.32 72.73 218.32 72.65 194.42 48.75 194.42 82.55 194.42 129.1 191.83 126.52 191.83 126.53 176.7 111.39 176.7 146.54 194.42 164.26 194.42 209.88 218.32 209.88 218.32 188.16 218.38 188.22 218.38 153.08 218.32 153.02 218.32 106.51 231.31 119.5"/><polygon class="cls-74" points="188.69 43.02 169.93 24.25 169.91 24.25 147.15 1.47 147.15 209.88 171.04 209.88 171.04 58.94 188.69 76.6 188.69 43.02"/><polygon class="cls-74" points="100.11 24.25 81.34 43.02 81.34 76.6 99 58.94 99 209.88 122.89 209.88 122.89 1.47 100.12 24.25 100.11 24.25"/><polygon class="cls-74" points="78.21 126.52 75.63 129.1 75.63 82.55 75.63 48.75 51.73 72.65 51.73 72.73 4.87 119.5 38.73 119.5 51.73 106.51 51.73 153.01 51.66 153.08 51.66 188.22 51.73 188.15 51.73 209.88 75.63 209.88 75.63 164.26 93.34 146.54 93.34 111.39 78.21 126.53 78.21 126.52"/><polygon class="cls-75" points="231.15 119.45 265.01 119.45 218.16 72.68 218.16 72.6 194.25 48.7 194.25 82.5 194.25 129.06 191.67 126.47 191.67 126.48 176.54 111.35 176.54 146.49 194.25 164.21 194.25 209.83 218.16 209.83 218.16 188.11 218.22 188.18 218.22 153.03 218.16 152.97 218.16 106.46 231.15 119.45"/><polygon class="cls-75" points="188.53 42.97 169.76 24.2 169.75 24.2 146.99 1.42 146.99 209.83 170.88 209.83 170.88 58.89 188.53 76.55 188.53 42.97"/><polygon class="cls-75" points="99.95 24.2 81.18 42.97 81.18 76.55 98.84 58.89 98.84 209.83 122.73 209.83 122.73 1.42 99.96 24.2 99.95 24.2"/><polygon class="cls-75" points="78.05 126.47 75.46 129.06 75.46 82.5 75.46 48.7 51.57 72.6 51.57 72.68 4.71 119.45 38.57 119.45 51.57 106.46 51.57 152.96 51.49 153.03 51.49 188.18 51.57 188.1 51.57 209.83 75.46 209.83 75.46 164.21 93.17 146.49 93.17 111.35 78.05 126.48 78.05 126.47"/><polygon class="cls-76" points="230.99 119.41 264.85 119.41 218 72.63 218 72.55 194.09 48.65 194.09 82.45 194.09 129.01 191.51 126.42 191.51 126.43 176.37 111.3 176.37 146.44 194.09 164.16 194.09 209.78 218 209.78 218 188.06 218.06 188.13 218.06 152.98 218 152.92 218 106.41 230.99 119.41"/><polygon class="cls-76" points="188.37 42.92 169.6 24.16 169.59 24.16 146.83 1.38 146.83 209.78 170.72 209.78 170.72 58.84 188.37 76.5 188.37 42.92"/><polygon class="cls-76" points="99.79 24.16 81.01 42.92 81.01 76.5 98.68 58.84 98.68 209.78 122.57 209.78 122.57 1.38 99.8 24.16 99.79 24.16"/><polygon class="cls-76" points="77.88 126.42 75.3 129 75.3 82.45 75.3 48.65 51.41 72.55 51.41 72.63 4.55 119.41 38.41 119.41 51.41 106.41 51.41 152.91 51.33 152.98 51.33 188.13 51.41 188.05 51.41 209.78 75.3 209.78 75.3 164.16 93.01 146.44 93.01 111.3 77.88 126.43 77.88 126.42"/><polygon class="cls-77" points="230.82 119.36 264.68 119.36 217.83 72.58 217.83 72.5 193.93 48.6 193.93 82.4 193.93 128.96 191.35 126.37 191.35 126.38 176.21 111.25 176.21 146.39 193.93 164.11 193.93 209.73 217.83 209.73 217.83 188.01 217.9 188.08 217.9 152.93 217.83 152.87 217.83 106.36 230.82 119.36"/><polygon class="cls-77" points="188.21 42.88 169.44 24.11 169.42 24.11 146.67 1.33 146.67 209.73 170.56 209.73 170.56 58.79 188.21 76.45 188.21 42.88"/><polygon class="cls-77" points="99.63 24.11 80.85 42.88 80.85 76.45 98.52 58.79 98.52 209.73 122.41 209.73 122.41 1.33 99.64 24.11 99.63 24.11"/><polygon class="cls-77" points="77.72 126.37 75.14 128.96 75.14 82.4 75.14 48.6 51.24 72.5 51.24 72.58 4.38 119.36 38.25 119.36 51.24 106.36 51.24 152.86 51.17 152.93 51.17 188.08 51.24 188 51.24 209.73 75.14 209.73 75.14 164.11 92.85 146.39 92.85 111.25 77.72 126.38 77.72 126.37"/><polygon class="cls-78" points="230.66 119.31 264.52 119.31 217.67 72.53 217.67 72.45 193.77 48.55 193.77 82.35 193.77 128.91 191.18 126.32 191.18 126.33 176.05 111.2 176.05 146.34 193.77 164.06 193.77 209.69 217.67 209.69 217.67 187.96 217.73 188.03 217.73 152.88 217.67 152.82 217.67 106.31 230.66 119.31"/><polygon class="cls-78" points="188.04 42.83 169.28 24.06 169.26 24.06 146.5 1.28 146.5 209.69 170.4 209.69 170.4 58.74 188.04 76.4 188.04 42.83"/><polygon class="cls-78" points="99.46 24.06 80.69 42.83 80.69 76.4 98.35 58.74 98.35 209.69 122.24 209.69 122.24 1.28 99.47 24.06 99.46 24.06"/><polygon class="cls-78" points="77.56 126.32 74.98 128.91 74.98 82.35 74.98 48.55 51.08 72.45 51.08 72.53 4.22 119.31 38.09 119.31 51.08 106.31 51.08 152.81 51.01 152.88 51.01 188.03 51.08 187.95 51.08 209.69 74.98 209.69 74.98 164.06 92.69 146.34 92.69 111.2 77.56 126.33 77.56 126.32"/><polygon class="cls-79" points="230.5 119.26 264.36 119.26 217.51 72.48 217.51 72.4 193.6 48.5 193.6 82.31 193.6 128.86 191.02 126.27 191.02 126.28 175.89 111.15 175.89 146.29 193.6 164.01 193.6 209.64 217.51 209.64 217.51 187.91 217.57 187.98 217.57 152.84 217.51 152.77 217.51 106.26 230.5 119.26"/><polygon class="cls-79" points="187.88 42.78 169.12 24.01 169.1 24.01 146.34 1.23 146.34 209.64 170.23 209.64 170.23 58.7 187.88 76.35 187.88 42.78"/><polygon class="cls-79" points="99.3 24.01 80.53 42.78 80.53 76.35 98.19 58.7 98.19 209.64 122.08 209.64 122.08 1.23 99.31 24.01 99.3 24.01"/><polygon class="cls-79" points="77.4 126.27 74.81 128.86 74.81 82.31 74.81 48.5 50.92 72.4 50.92 72.48 4.06 119.26 37.92 119.26 50.92 106.26 50.92 152.76 50.84 152.84 50.84 187.98 50.92 187.9 50.92 209.64 74.81 209.64 74.81 164.01 92.53 146.29 92.53 111.15 77.4 126.28 77.4 126.27"/><polygon class="cls-80" points="230.34 119.21 264.2 119.21 217.34 72.43 217.34 72.35 193.44 48.45 193.44 82.25 193.44 128.81 190.86 126.23 190.86 126.24 175.72 111.1 175.72 146.24 193.44 163.96 193.44 209.59 217.34 209.59 217.34 187.87 217.41 187.93 217.41 152.79 217.34 152.72 217.34 106.22 230.34 119.21"/><polygon class="cls-80" points="187.72 42.73 168.95 23.96 168.94 23.96 146.18 1.18 146.18 209.59 170.07 209.59 170.07 58.65 187.72 76.3 187.72 42.73"/><polygon class="cls-80" points="99.14 23.96 80.36 42.73 80.36 76.3 98.03 58.65 98.03 209.59 121.92 209.59 121.92 1.18 99.15 23.96 99.14 23.96"/><polygon class="cls-80" points="77.23 126.23 74.65 128.81 74.65 82.25 74.65 48.45 50.76 72.35 50.76 72.43 3.9 119.21 37.76 119.21 50.76 106.22 50.76 152.71 50.68 152.79 50.68 187.93 50.76 187.85 50.76 209.59 74.65 209.59 74.65 163.96 92.36 146.24 92.36 111.1 77.23 126.24 77.23 126.23"/><polygon class="cls-81" points="230.17 119.16 264.03 119.16 217.18 72.39 217.18 72.3 193.28 48.41 193.28 82.21 193.28 128.76 190.7 126.18 190.7 126.19 175.56 111.05 175.56 146.19 193.28 163.91 193.28 209.54 217.18 209.54 217.18 187.82 217.25 187.88 217.25 152.74 217.18 152.67 217.18 106.17 230.17 119.16"/><polygon class="cls-81" points="187.56 42.68 168.79 23.91 168.78 23.91 146.02 1.13 146.02 209.54 169.91 209.54 169.91 58.6 187.56 76.25 187.56 42.68"/><polygon class="cls-81" points="98.97 23.91 80.2 42.68 80.2 76.25 97.87 58.6 97.87 209.54 121.75 209.54 121.75 1.13 98.99 23.91 98.97 23.91"/><polygon class="cls-81" points="77.07 126.18 74.49 128.76 74.49 82.21 74.49 48.41 50.59 72.3 50.59 72.39 3.73 119.16 37.6 119.16 50.59 106.17 50.59 152.66 50.52 152.74 50.52 187.88 50.59 187.81 50.59 209.54 74.49 209.54 74.49 163.91 92.2 146.19 92.2 111.05 77.07 126.19 77.07 126.18"/><polygon class="cls-82" points="230.01 119.11 263.87 119.11 217.02 72.34 217.02 72.25 193.12 48.35 193.12 82.16 193.12 128.71 190.54 126.13 190.54 126.14 175.4 111 175.4 146.15 193.12 163.87 193.12 209.49 217.02 209.49 217.02 187.77 217.08 187.83 217.08 152.69 217.02 152.62 217.02 106.12 230.01 119.11"/><polygon class="cls-82" points="187.39 42.63 168.63 23.86 168.61 23.86 145.85 1.08 145.85 209.49 169.75 209.49 169.75 58.55 187.39 76.2 187.39 42.63"/><polygon class="cls-82" points="98.81 23.86 80.04 42.63 80.04 76.2 97.7 58.55 97.7 209.49 121.59 209.49 121.59 1.08 98.82 23.86 98.81 23.86"/><polygon class="cls-82" points="76.91 126.13 74.33 128.71 74.33 82.16 74.33 48.35 50.43 72.25 50.43 72.34 3.57 119.11 37.44 119.11 50.43 106.12 50.43 152.61 50.36 152.69 50.36 187.83 50.43 187.76 50.43 209.49 74.33 209.49 74.33 163.87 92.04 146.15 92.04 111 76.91 126.14 76.91 126.13"/><polygon class="cls-83" points="229.85 119.06 263.71 119.06 216.86 72.29 216.86 72.2 192.96 48.31 192.96 82.11 192.96 128.66 190.37 126.08 190.37 126.09 175.24 110.95 175.24 146.1 192.96 163.81 192.96 209.44 216.86 209.44 216.86 187.72 216.92 187.78 216.92 152.64 216.86 152.57 216.86 106.07 229.85 119.06"/><polygon class="cls-83" points="187.23 42.58 168.46 23.81 168.45 23.81 145.69 1.03 145.69 209.44 169.58 209.44 169.58 58.5 187.23 76.15 187.23 42.58"/><polygon class="cls-83" points="98.65 23.81 79.88 42.58 79.88 76.15 97.54 58.5 97.54 209.44 121.43 209.44 121.43 1.03 98.66 23.81 98.65 23.81"/><polygon class="cls-83" points="76.75 126.08 74.16 128.66 74.16 82.11 74.16 48.31 50.27 72.2 50.27 72.29 3.41 119.06 37.27 119.06 50.27 106.07 50.27 152.56 50.19 152.64 50.19 187.78 50.27 187.71 50.27 209.44 74.16 209.44 74.16 163.81 91.88 146.1 91.88 110.95 76.75 126.09 76.75 126.08"/><polygon class="cls-84" points="229.69 119.01 263.55 119.01 216.69 72.24 216.69 72.16 192.79 48.26 192.79 82.06 192.79 128.61 190.21 126.03 190.21 126.04 175.07 110.9 175.07 146.05 192.79 163.77 192.79 209.39 216.69 209.39 216.69 187.67 216.76 187.73 216.76 152.59 216.69 152.53 216.69 106.02 229.69 119.01"/><polygon class="cls-84" points="187.07 42.53 168.3 23.76 168.29 23.76 145.53 0.98 145.53 209.39 169.42 209.39 169.42 58.45 187.07 76.1 187.07 42.53"/><polygon class="cls-84" points="98.49 23.76 79.72 42.53 79.72 76.1 97.38 58.45 97.38 209.39 121.27 209.39 121.27 0.98 98.5 23.76 98.49 23.76"/><polygon class="cls-84" points="76.58 126.03 74 128.61 74 82.06 74 48.26 50.11 72.16 50.11 72.24 3.25 119.01 37.11 119.01 50.11 106.02 50.11 152.51 50.03 152.59 50.03 187.73 50.11 187.66 50.11 209.39 74 209.39 74 163.77 91.71 146.05 91.71 110.9 76.58 126.04 76.58 126.03"/><polygon class="cls-85" points="229.53 118.97 263.38 118.97 216.53 72.19 216.53 72.11 192.63 48.21 192.63 82.01 192.63 128.56 190.05 125.98 190.05 125.99 174.91 110.85 174.91 146 192.63 163.72 192.63 209.34 216.53 209.34 216.53 187.62 216.6 187.68 216.6 152.54 216.53 152.48 216.53 105.97 229.53 118.97"/><polygon class="cls-85" points="186.91 42.48 168.14 23.71 168.13 23.71 145.37 0.93 145.37 209.34 169.26 209.34 169.26 58.4 186.91 76.06 186.91 42.48"/><polygon class="cls-85" points="98.33 23.71 79.55 42.48 79.55 76.06 97.22 58.4 97.22 209.34 121.11 209.34 121.11 0.93 98.34 23.71 98.33 23.71"/><polygon class="cls-85" points="76.42 125.98 73.84 128.56 73.84 82.01 73.84 48.21 49.94 72.11 49.94 72.19 3.09 118.97 36.95 118.97 49.94 105.97 49.94 152.47 49.87 152.54 49.87 187.68 49.94 187.61 49.94 209.34 73.84 209.34 73.84 163.72 91.55 146 91.55 110.85 76.42 125.99 76.42 125.98"/><polygon class="cls-86" points="229.36 118.92 263.22 118.92 216.37 72.14 216.37 72.06 192.47 48.16 192.47 81.96 192.47 128.51 189.89 125.93 189.89 125.94 174.75 110.81 174.75 145.95 192.47 163.67 192.47 209.29 216.37 209.29 216.37 187.57 216.43 187.63 216.43 152.49 216.37 152.43 216.37 105.92 229.36 118.92"/><polygon class="cls-86" points="186.74 42.43 167.98 23.66 167.96 23.66 145.21 0.88 145.21 209.29 169.1 209.29 169.1 58.35 186.74 76.01 186.74 42.43"/><polygon class="cls-86" points="98.16 23.66 79.39 42.43 79.39 76.01 97.06 58.35 97.06 209.29 120.94 209.29 120.94 0.88 98.17 23.66 98.16 23.66"/><polygon class="cls-86" points="76.26 125.93 73.68 128.51 73.68 81.96 73.68 48.16 49.78 72.06 49.78 72.14 2.92 118.92 36.79 118.92 49.78 105.92 49.78 152.42 49.71 152.49 49.71 187.63 49.78 187.56 49.78 209.29 73.68 209.29 73.68 163.67 91.39 145.95 91.39 110.81 76.26 125.94 76.26 125.93"/><polygon class="cls-87" points="229.2 118.87 263.06 118.87 216.21 72.09 216.21 72.01 192.31 48.11 192.31 81.91 192.31 128.47 189.72 125.88 189.72 125.89 174.59 110.76 174.59 145.9 192.31 163.62 192.31 209.24 216.21 209.24 216.21 187.52 216.27 187.59 216.27 152.44 216.21 152.38 216.21 105.87 229.2 118.87"/><polygon class="cls-87" points="186.58 42.38 167.81 23.61 167.8 23.61 145.04 0.83 145.04 209.24 168.93 209.24 168.93 58.3 186.58 75.96 186.58 42.38"/><polygon class="cls-87" points="98 23.61 79.23 42.38 79.23 75.96 96.89 58.3 96.89 209.24 120.78 209.24 120.78 0.83 98.01 23.61 98 23.61"/><polygon class="cls-87" points="76.1 125.88 73.51 128.47 73.51 81.91 73.51 48.11 49.62 72.01 49.62 72.09 2.76 118.87 36.62 118.87 49.62 105.87 49.62 152.37 49.54 152.44 49.54 187.59 49.62 187.51 49.62 209.24 73.51 209.24 73.51 163.62 91.23 145.9 91.23 110.76 76.1 125.89 76.1 125.88"/><polygon class="cls-88" points="229.04 118.82 262.9 118.82 216.04 72.04 216.04 71.96 192.14 48.06 192.14 81.86 192.14 128.42 189.56 125.83 189.56 125.84 174.42 110.71 174.42 145.85 192.14 163.57 192.14 209.19 216.04 209.19 216.04 187.47 216.11 187.54 216.11 152.39 216.04 152.33 216.04 105.82 229.04 118.82"/><polygon class="cls-88" points="186.42 42.34 167.65 23.57 167.64 23.57 144.88 0.79 144.88 209.19 168.77 209.19 168.77 58.25 186.42 75.91 186.42 42.34"/><polygon class="cls-88" points="97.84 23.57 79.07 42.34 79.07 75.91 96.73 58.25 96.73 209.19 120.62 209.19 120.62 0.79 97.85 23.57 97.84 23.57"/><polygon class="cls-88" points="75.94 125.83 73.35 128.42 73.35 81.86 73.35 48.06 49.46 71.96 49.46 72.04 2.6 118.82 36.46 118.82 49.46 105.82 49.46 152.32 49.38 152.39 49.38 187.54 49.46 187.46 49.46 209.19 73.35 209.19 73.35 163.57 91.06 145.85 91.06 110.71 75.94 125.84 75.94 125.83"/><polygon class="cls-89" points="228.88 118.77 262.74 118.77 215.88 71.99 215.88 71.91 191.98 48.01 191.98 81.81 191.98 128.37 189.4 125.78 189.4 125.8 174.26 110.66 174.26 145.8 191.98 163.52 191.98 209.15 215.88 209.15 215.88 187.42 215.95 187.49 215.95 152.34 215.88 152.28 215.88 105.77 228.88 118.77"/><polygon class="cls-89" points="186.26 42.29 167.49 23.52 167.48 23.52 144.72 0.74 144.72 209.15 168.61 209.15 168.61 58.2 186.26 75.86 186.26 42.29"/><polygon class="cls-89" points="97.68 23.52 78.9 42.29 78.9 75.86 96.57 58.2 96.57 209.15 120.45 209.15 120.45 0.74 97.69 23.52 97.68 23.52"/><polygon class="cls-89" points="75.77 125.78 73.19 128.37 73.19 81.81 73.19 48.01 49.29 71.91 49.29 71.99 2.44 118.77 36.3 118.77 49.29 105.77 49.29 152.27 49.22 152.34 49.22 187.49 49.29 187.41 49.29 209.15 73.19 209.15 73.19 163.52 90.9 145.8 90.9 110.66 75.77 125.8 75.77 125.78"/><polygon class="cls-90" points="228.71 118.72 262.57 118.72 215.72 71.94 215.72 71.86 191.82 47.96 191.82 81.76 191.82 128.32 189.24 125.73 189.24 125.75 174.1 110.61 174.1 145.75 191.82 163.47 191.82 209.1 215.72 209.1 215.72 187.37 215.78 187.44 215.78 152.29 215.72 152.23 215.72 105.72 228.71 118.72"/><polygon class="cls-90" points="186.09 42.24 167.33 23.47 167.31 23.47 144.56 0.69 144.56 209.1 168.45 209.1 168.45 58.16 186.09 75.81 186.09 42.24"/><polygon class="cls-90" points="97.51 23.47 78.74 42.24 78.74 75.81 96.41 58.16 96.41 209.1 120.29 209.1 120.29 0.69 97.52 23.47 97.51 23.47"/><polygon class="cls-90" points="75.61 125.73 73.03 128.32 73.03 81.76 73.03 47.96 49.13 71.86 49.13 71.94 2.27 118.72 36.14 118.72 49.13 105.72 49.13 152.22 49.06 152.29 49.06 187.44 49.13 187.36 49.13 209.1 73.03 209.1 73.03 163.47 90.74 145.75 90.74 110.61 75.61 125.75 75.61 125.73"/><polygon class="cls-91" points="228.55 118.67 262.41 118.67 215.56 71.89 215.56 71.81 191.66 47.91 191.66 81.72 191.66 128.27 189.07 125.69 189.07 125.7 173.94 110.56 173.94 145.7 191.66 163.42 191.66 209.05 215.56 209.05 215.56 187.32 215.62 187.39 215.62 152.25 215.56 152.18 215.56 105.67 228.55 118.67"/><polygon class="cls-91" points="185.93 42.19 167.16 23.42 167.15 23.42 144.39 0.64 144.39 209.05 168.28 209.05 168.28 58.11 185.93 75.76 185.93 42.19"/><polygon class="cls-91" points="97.35 23.42 78.58 42.19 78.58 75.76 96.24 58.11 96.24 209.05 120.13 209.05 120.13 0.64 97.36 23.42 97.35 23.42"/><polygon class="cls-91" points="75.45 125.69 72.86 128.27 72.86 81.72 72.86 47.91 48.97 71.81 48.97 71.89 2.11 118.67 35.97 118.67 48.97 105.67 48.97 152.17 48.89 152.25 48.89 187.39 48.97 187.31 48.97 209.05 72.86 209.05 72.86 163.42 90.58 145.7 90.58 110.56 75.45 125.7 75.45 125.69"/><polygon class="cls-92" points="228.39 118.62 262.25 118.62 215.4 71.84 215.4 71.76 191.5 47.86 191.5 81.67 191.5 128.22 188.91 125.64 188.91 125.65 173.78 110.51 173.78 145.65 191.5 163.37 191.5 209 215.4 209 215.4 187.28 215.46 187.34 215.46 152.2 215.4 152.13 215.4 105.63 228.39 118.62"/><polygon class="cls-92" points="185.77 42.14 167 23.37 166.99 23.37 144.23 0.59 144.23 209 168.12 209 168.12 58.06 185.77 75.71 185.77 42.14"/><polygon class="cls-92" points="97.19 23.37 78.42 42.14 78.42 75.71 96.08 58.06 96.08 209 119.97 209 119.97 0.59 97.2 23.37 97.19 23.37"/><polygon class="cls-92" points="75.28 125.64 72.7 128.22 72.7 81.67 72.7 47.86 48.81 71.76 48.81 71.84 1.95 118.62 35.81 118.62 48.81 105.63 48.81 152.12 48.73 152.2 48.73 187.34 48.81 187.27 48.81 209 72.7 209 72.7 163.37 90.41 145.65 90.41 110.51 75.28 125.65 75.28 125.64"/><polygon class="cls-93" points="228.22 118.57 262.08 118.57 215.23 71.8 215.23 71.71 191.33 47.81 191.33 81.62 191.33 128.17 188.75 125.59 188.75 125.6 173.61 110.46 173.61 145.6 191.33 163.32 191.33 208.95 215.23 208.95 215.23 187.23 215.3 187.29 215.3 152.15 215.23 152.08 215.23 105.58 228.22 118.57"/><polygon class="cls-93" points="185.61 42.09 166.84 23.32 166.83 23.32 144.07 0.54 144.07 208.95 167.96 208.95 167.96 58.01 185.61 75.66 185.61 42.09"/><polygon class="cls-93" points="97.03 23.32 78.25 42.09 78.25 75.66 95.92 58.01 95.92 208.95 119.81 208.95 119.81 0.54 97.04 23.32 97.03 23.32"/><polygon class="cls-93" points="75.12 125.59 72.54 128.17 72.54 81.62 72.54 47.81 48.64 71.71 48.64 71.8 1.79 118.57 35.65 118.57 48.64 105.58 48.64 152.07 48.57 152.15 48.57 187.29 48.64 187.22 48.64 208.95 72.54 208.95 72.54 163.32 90.25 145.6 90.25 110.46 75.12 125.6 75.12 125.59"/><polygon class="cls-94" points="228.06 118.52 261.92 118.52 215.07 71.75 215.07 71.66 191.17 47.77 191.17 81.57 191.17 128.12 188.59 125.54 188.59 125.55 173.45 110.41 173.45 145.56 191.17 163.28 191.17 208.9 215.07 208.9 215.07 187.18 215.13 187.24 215.13 152.1 215.07 152.03 215.07 105.53 228.06 118.52"/><polygon class="cls-94" points="185.44 42.04 166.68 23.27 166.66 23.27 143.91 0.49 143.91 208.9 167.8 208.9 167.8 57.96 185.44 75.61 185.44 42.04"/><polygon class="cls-94" points="96.86 23.27 78.09 42.04 78.09 75.61 95.75 57.96 95.75 208.9 119.64 208.9 119.64 0.49 96.87 23.27 96.86 23.27"/><polygon class="cls-94" points="74.96 125.54 72.38 128.12 72.38 81.57 72.38 47.77 48.48 71.66 48.48 71.75 1.62 118.52 35.49 118.52 48.48 105.53 48.48 152.02 48.41 152.1 48.41 187.24 48.48 187.17 48.48 208.9 72.38 208.9 72.38 163.28 90.09 145.56 90.09 110.41 74.96 125.55 74.96 125.54"/><polygon class="cls-95" points="227.9 118.47 261.76 118.47 214.91 71.7 214.91 71.61 191.01 47.72 191.01 81.52 191.01 128.07 188.42 125.49 188.42 125.5 173.29 110.36 173.29 145.51 191.01 163.23 191.01 208.85 214.91 208.85 214.91 187.13 214.97 187.19 214.97 152.05 214.91 151.99 214.91 105.48 227.9 118.47"/><polygon class="cls-95" points="185.28 41.99 166.52 23.22 166.5 23.22 143.74 0.44 143.74 208.85 167.63 208.85 167.63 57.91 185.28 75.56 185.28 41.99"/><polygon class="cls-95" points="96.7 23.22 77.93 41.99 77.93 75.56 95.59 57.91 95.59 208.85 119.48 208.85 119.48 0.44 96.71 23.22 96.7 23.22"/><polygon class="cls-95" points="74.8 125.49 72.22 128.07 72.22 81.52 72.22 47.72 48.32 71.61 48.32 71.7 1.46 118.47 35.32 118.47 48.32 105.48 48.32 151.97 48.24 152.05 48.24 187.19 48.32 187.12 48.32 208.85 72.22 208.85 72.22 163.23 89.93 145.51 89.93 110.36 74.8 125.5 74.8 125.49"/><polygon class="cls-96" points="227.74 118.42 261.6 118.42 214.75 71.65 214.75 71.57 190.84 47.67 190.84 81.47 190.84 128.02 188.26 125.44 188.26 125.45 173.12 110.31 173.12 145.46 190.84 163.18 190.84 208.8 214.75 208.8 214.75 187.08 214.81 187.14 214.81 152 214.75 151.94 214.75 105.43 227.74 118.42"/><polygon class="cls-96" points="185.12 41.94 166.35 23.17 166.34 23.17 143.58 0.39 143.58 208.8 167.47 208.8 167.47 57.86 185.12 75.52 185.12 41.94"/><polygon class="cls-96" points="96.54 23.17 77.77 41.94 77.77 75.52 95.43 57.86 95.43 208.8 119.32 208.8 119.32 0.39 96.55 23.17 96.54 23.17"/><polygon class="cls-96" points="74.64 125.44 72.05 128.02 72.05 81.47 72.05 47.67 48.16 71.57 48.16 71.65 1.3 118.42 35.16 118.42 48.16 105.43 48.16 151.93 48.08 152 48.08 187.14 48.16 187.07 48.16 208.8 72.05 208.8 72.05 163.18 89.77 145.46 89.77 110.31 74.64 125.45 74.64 125.44"/><polygon class="cls-97" points="227.58 118.38 261.44 118.38 214.58 71.6 214.58 71.52 190.68 47.62 190.68 81.42 190.68 127.97 188.1 125.39 188.1 125.4 172.96 110.27 172.96 145.41 190.68 163.13 190.68 208.75 214.58 208.75 214.58 187.03 214.65 187.09 214.65 151.95 214.58 151.89 214.58 105.38 227.58 118.38"/><polygon class="cls-97" points="184.96 41.89 166.19 23.12 166.18 23.12 143.42 0.34 143.42 208.75 167.31 208.75 167.31 57.81 184.96 75.47 184.96 41.89"/><polygon class="cls-97" points="96.38 23.12 77.6 41.89 77.6 75.47 95.27 57.81 95.27 208.75 119.16 208.75 119.16 0.34 96.39 23.12 96.38 23.12"/><polygon class="cls-97" points="74.47 125.39 71.89 127.97 71.89 81.42 71.89 47.62 47.99 71.52 47.99 71.6 1.14 118.38 35 118.38 47.99 105.38 47.99 151.88 47.92 151.95 47.92 187.09 47.99 187.02 47.99 208.75 71.89 208.75 71.89 163.13 89.6 145.41 89.6 110.27 74.47 125.4 74.47 125.39"/><polygon class="cls-98" points="227.41 118.33 261.27 118.33 214.42 71.55 214.42 71.47 190.52 47.57 190.52 81.37 190.52 127.93 187.94 125.34 187.94 125.35 172.8 110.22 172.8 145.36 190.52 163.08 190.52 208.7 214.42 208.7 214.42 186.98 214.49 187.04 214.49 151.9 214.42 151.84 214.42 105.33 227.41 118.33"/><polygon class="cls-98" points="184.79 41.84 166.03 23.07 166.01 23.07 143.26 0.29 143.26 208.7 167.15 208.7 167.15 57.76 184.79 75.42 184.79 41.84"/><polygon class="cls-98" points="96.22 23.07 77.44 41.84 77.44 75.42 95.11 57.76 95.11 208.7 119 208.7 119 0.29 96.22 23.07 96.22 23.07"/><polygon class="cls-98" points="74.31 125.34 71.73 127.92 71.73 81.37 71.73 47.57 47.83 71.47 47.83 71.55 0.97 118.33 34.84 118.33 47.83 105.33 47.83 151.83 47.76 151.9 47.76 187.04 47.83 186.97 47.83 208.7 71.73 208.7 71.73 163.08 89.44 145.36 89.44 110.22 74.31 125.35 74.31 125.34"/><polygon class="cls-99" points="227.25 118.28 261.11 118.28 214.26 71.5 214.26 71.42 190.36 47.52 190.36 81.32 190.36 127.88 187.78 125.29 187.78 125.3 172.64 110.17 172.64 145.31 190.36 163.03 190.36 208.65 214.26 208.65 214.26 186.93 214.32 187 214.32 151.85 214.26 151.79 214.26 105.28 227.25 118.28"/><polygon class="cls-99" points="184.63 41.8 165.87 23.02 165.85 23.02 143.09 0.25 143.09 208.65 166.99 208.65 166.99 57.71 184.63 75.37 184.63 41.8"/><polygon class="cls-99" points="96.05 23.02 77.28 41.8 77.28 75.37 94.94 57.71 94.94 208.65 118.83 208.65 118.83 0.25 96.06 23.02 96.05 23.02"/><polygon class="cls-99" points="74.15 125.29 71.56 127.88 71.56 81.32 71.56 47.52 47.67 71.42 47.67 71.5 0.81 118.28 34.67 118.28 47.67 105.28 47.67 151.78 47.59 151.85 47.59 187 47.67 186.92 47.67 208.65 71.56 208.65 71.56 163.03 89.28 145.31 89.28 110.17 74.15 125.3 74.15 125.29"/><polygon class="cls-100" points="227.09 118.23 260.95 118.23 214.1 71.45 214.1 71.37 190.19 47.47 190.19 81.27 190.19 127.83 187.61 125.24 187.61 125.25 172.47 110.12 172.47 145.26 190.19 162.98 190.19 208.6 214.1 208.6 214.1 186.88 214.16 186.95 214.16 151.8 214.1 151.74 214.1 105.23 227.09 118.23"/><polygon class="cls-100" points="184.47 41.75 165.7 22.98 165.69 22.98 142.93 0.2 142.93 208.6 166.82 208.6 166.82 57.66 184.47 75.32 184.47 41.75"/><polygon class="cls-100" points="95.89 22.98 77.12 41.75 77.12 75.32 94.78 57.66 94.78 208.6 118.67 208.6 118.67 0.2 95.9 22.98 95.89 22.98"/><polygon class="cls-100" points="73.99 125.24 71.4 127.83 71.4 81.27 71.4 47.47 47.51 71.37 47.51 71.45 0.65 118.23 34.51 118.23 47.51 105.23 47.51 151.73 47.43 151.8 47.43 186.95 47.51 186.87 47.51 208.6 71.4 208.6 71.4 162.98 89.11 145.26 89.11 110.12 73.99 125.25 73.99 125.24"/><polygon class="cls-101" points="226.93 118.18 260.79 118.18 213.93 71.4 213.93 71.32 190.03 47.42 190.03 81.22 190.03 127.78 187.45 125.19 187.45 125.2 172.31 110.07 172.31 145.21 190.03 162.93 190.03 208.56 213.93 208.56 213.93 186.83 214 186.9 214 151.75 213.93 151.69 213.93 105.18 226.93 118.18"/><polygon class="cls-101" points="184.31 41.7 165.54 22.93 165.53 22.93 142.77 0.15 142.77 208.56 166.66 208.56 166.66 57.62 184.31 75.27 184.31 41.7"/><polygon class="cls-101" points="95.73 22.93 76.95 41.7 76.95 75.27 94.62 57.62 94.62 208.56 118.51 208.56 118.51 0.15 95.74 22.93 95.73 22.93"/><polygon class="cls-101" points="73.82 125.19 71.24 127.78 71.24 81.22 71.24 47.42 47.34 71.32 47.34 71.4 0.49 118.18 34.35 118.18 47.34 105.18 47.34 151.68 47.27 151.75 47.27 186.9 47.34 186.82 47.34 208.56 71.24 208.56 71.24 162.93 88.95 145.21 88.95 110.07 73.82 125.2 73.82 125.19"/><polygon class="cls-102" points="226.76 118.13 260.62 118.13 213.77 71.35 213.77 71.27 189.87 47.37 189.87 81.17 189.87 127.73 187.29 125.14 187.29 125.16 172.15 110.02 172.15 145.16 189.87 162.88 189.87 208.51 213.77 208.51 213.77 186.78 213.84 186.85 213.84 151.71 213.77 151.64 213.77 105.13 226.76 118.13"/><polygon class="cls-102" points="184.15 41.65 165.38 22.88 165.36 22.88 142.61 0.1 142.61 208.51 166.5 208.51 166.5 57.57 184.15 75.22 184.15 41.65"/><polygon class="cls-102" points="95.56 22.88 76.79 41.65 76.79 75.22 94.46 57.57 94.46 208.51 118.34 208.51 118.34 0.1 95.58 22.88 95.56 22.88"/><polygon class="cls-102" points="73.66 125.14 71.08 127.73 71.08 81.17 71.08 47.37 47.18 71.27 47.18 71.35 0.33 118.13 34.19 118.13 47.18 105.13 47.18 151.63 47.11 151.71 47.11 186.85 47.18 186.77 47.18 208.51 71.08 208.51 71.08 162.88 88.79 145.16 88.79 110.02 73.66 125.16 73.66 125.14"/><polygon class="cls-103" points="226.6 118.08 260.46 118.08 213.61 71.31 213.61 71.22 189.71 47.32 189.71 81.13 189.71 127.68 187.13 125.1 187.13 125.11 171.99 109.97 171.99 145.11 189.71 162.83 189.71 208.46 213.61 208.46 213.61 186.74 213.67 186.8 213.67 151.66 213.61 151.59 213.61 105.08 226.6 118.08"/><polygon class="cls-103" points="183.98 41.6 165.22 22.83 165.2 22.83 142.44 0.05 142.44 208.46 166.34 208.46 166.34 57.52 183.98 75.17 183.98 41.6"/><polygon class="cls-103" points="95.4 22.83 76.63 41.6 76.63 75.17 94.29 57.52 94.29 208.46 118.18 208.46 118.18 0.05 95.41 22.83 95.4 22.83"/><polygon class="cls-103" points="73.5 125.1 70.92 127.68 70.92 81.13 70.92 47.32 47.02 71.22 47.02 71.31 0.16 118.08 34.02 118.08 47.02 105.08 47.02 151.58 46.95 151.66 46.95 186.8 47.02 186.72 47.02 208.46 70.92 208.46 70.92 162.83 88.63 145.11 88.63 109.97 73.5 125.11 73.5 125.1"/><polygon class="cls-104" points="226.44 118.03 260.3 118.03 213.45 71.26 213.45 71.17 189.54 47.27 189.54 81.08 189.54 127.63 186.96 125.05 186.96 125.06 171.83 109.92 171.83 145.06 189.54 162.78 189.54 208.41 213.45 208.41 213.45 186.69 213.51 186.75 213.51 151.61 213.45 151.54 213.45 105.03 226.44 118.03"/><polygon class="cls-104" points="183.82 41.55 165.05 22.78 165.04 22.78 142.28 0 142.28 208.41 166.17 208.41 166.17 57.47 183.82 75.12 183.82 41.55"/><polygon class="cls-104" points="95.24 22.78 76.47 41.55 76.47 75.12 94.13 57.47 94.13 208.41 118.02 208.41 118.02 0 95.25 22.78 95.24 22.78"/><polygon class="cls-104" points="73.34 125.05 70.75 127.63 70.75 81.08 70.75 47.27 46.86 71.17 46.86 71.26 0 118.03 33.86 118.03 46.86 105.03 46.86 151.53 46.78 151.61 46.78 186.75 46.86 186.68 46.86 208.41 70.75 208.41 70.75 162.78 88.47 145.06 88.47 109.92 73.34 125.06 73.34 125.05"/></g><polygon class="cls-105" points="226.44 118.03 260.3 118.03 213.45 71.26 213.45 71.17 189.54 47.27 189.54 81.08 189.54 127.63 186.96 125.05 186.96 125.06 171.83 109.92 171.83 145.06 189.54 162.78 189.54 208.41 213.45 208.41 213.45 186.69 213.51 186.75 213.51 151.61 213.45 151.54 213.45 105.03 226.44 118.03"/><polygon class="cls-105" points="183.82 41.55 165.05 22.78 165.04 22.78 142.28 0 142.28 208.41 166.17 208.41 166.17 57.47 183.82 75.12 183.82 41.55"/><polygon class="cls-105" points="95.24 22.78 76.47 41.55 76.47 75.12 94.13 57.47 94.13 208.41 118.02 208.41 118.02 0 95.25 22.78 95.24 22.78"/><polygon class="cls-105" points="73.34 125.05 70.75 127.63 70.75 81.08 70.75 47.27 46.86 71.17 46.86 71.26 0 118.03 33.86 118.03 46.86 105.03 46.86 151.53 46.78 151.61 46.78 186.75 46.86 186.68 46.86 208.41 70.75 208.41 70.75 162.78 88.47 145.06 88.47 109.92 73.34 125.06 73.34 125.05"/></g></g></svg>